/* XPM */
static char *result[] = {
/* columns rows colors chars-per-pixel */
"64 64 11 1 ",
"  c #538631",
". c #588E34",
"X c #64A039",
"o c #4A782B",
"O c #3E6723",
"+ c #593D29",
"@ c #79553A",
"# c #966C4A",
"$ c gray53",
"% c #6C6C6C",
"& c #B9855C",
/* pixels */
" .X. .o.XX. ... ..X. ..XXX. .  ..X o   X...o ... X. ..X.....X.  ",
" X. o.o..X ..X  X..X . .XX.  .  .X oo .XX.Xo . . X.. ..X. .XX.X ",
".X. o o.X.o. X X. .X .o.X..o .o XXooo Xo. X o  ...X. .XX.o X. X ",
".X .oo.XX o. .XX.  .o o X. O .o X.o o.Xo  . o .. .X.  .X.o .X . ",
".X.o oX.X O ..X .. Xoo  .X O  oo.. . X.o o .oo.X  XX  .X oX. o. ",
" X o o.X. O ..X. . .o+ o.. O. .o.X ...oo o . oXX  .X O.XoOX. o o",
" .o   .Xo Oo. .. o  ++oo .o+. .O.X X..Oo  o.  X. o..O+ .oOX  ooO",
"  oo  XXo Oo o.X.o  +++o .O+ ..O.X.XX.OOo o o X  o .O+o O+.XooO+",
" o+oo X o.OOooX..oo ++++o.++ . o...X.o+Oo OooX   oo.++ooO+oXOo+@",
"oO++Oo +O.+OooX.oo+o+@++o +++.Ooo.XX.o+Oo OooXo ooo.+++o++o.+o+@",
"o+@+OO++Oo++oOX.oO+++@+@oo++++oO+oX.oO++ooOOo ooO+O +@++@+oo++@#",
"O@@++O+@Oo++O+X oO@++@@@+o+@++oO+oX.o+++Oo+Oo OoO+Oo+@++@++o@+@#",
"+@@+@+$$%O+@++. O+@+@@@++O+@@+OO@+o.O+++OO++o OO++OO+@@+@@++@#@@",
"@##@%$$%@O@@+@o O+@@++@@@O@@#+O+@@ooO+@++O++oo+O+++O@@@@#@+@@##@",
"##&#$%%%@+@##@oo+@@++###@+@##@++@@oO+@@+@++@Oo++++@+@@#@##@#@@#@",
"#@&##$%@###&&#+o+@+@#####+@#@@+@@#+O@@@@@++@+O+++@@@@@@####@+@@#",
"@@#&##@@@##&#&&O@@@#@##@@@#@@@@@@##+##@++@+@@++@+@++@@@@@#@@@+##",
"@@##@@#@@###&&#+@@@@##&&@@@+@@##@@###@@@++@@$$+%@@@++@@##@@+++@#",
"@#@@#@@##@@######@#&&&####@@+#@@###@@@++@@@%$%$%@++@@@##@++++@@@",
"@@@#@@##@@####@#@@@#&####@++++@@@#@@@++@+@#%$%%@++@@@#@@#@+@@@@@",
"@@@@@+@@###@@@#@++######@@@+@@++@@@@+@@+@@@@%+++@##@#@@@@+@@@##@",
"#@@@+++@@###@++++#@@##@#@##@@@@+++@@@@#@@@#@+++@#@@+@#@#@@@@@@#&",
"&##+++@@@@@##@+@@@##@@#@##@@#@@#@@@@##@#@@@#@@@++@+@@###@@@@#&&#",
"&&##@++@#@@@@#@@###@#@@@@@##@@#&@@###@@@#@###@++++++@@#&#@@###&&",
"&##@+####@#@@@@@@$$@@@@##@@###&&#&&#@@##&&&#@+@@@++@##&&#@#@#&#&",
"&#@#@@##@+@##@@@$$%$@##@@@@@###&&#@@+@@##&&&&&@@++@@@#&###@@&&##",
"#&#@@@@@+@@@@@@##%$$%#@#@++@@&&#####+++@###&&#&&@@@@#&#&@#@@&#@#",
"@###@+@#@@#@#@##@%$%###@++@@##&&###&@+@@@#&&###&&#@#&&##@@@###@@",
"#@@++@+@#@@###&&##%%#&&#@@+@+@###&&#@@++#@##&####@@##&&##@#@###@",
"##@@++@@@@##&&&&&&%#&&##@@++@###&&###@@++@@#####@@@@#@#@@@@##@@#",
"#&&@@@++@&&&&##&&##@@#&##+@+@@#@@##@##@@###@@@#@##@@@#@@@#####@@",
"##&&@++#&#&&##&&##@@#@##@@@@@+@@##@@#@@##&##@#@@@##@@++@#@##++#@",
"#&&#&##@##&&&###@@###@@@##@++@#@@###@##&&####@@@#@@+++@@@@++@#@#",
"#&####@@#@#&#@#@@##@##@##@++@@+#@@####&#&&#####@+@@@+@@@+@@++@##",
"##&#@@@#@@####@##@@+##@@@#@@++@@@#@#@&&&#####@++@@++@@++++@@@@@@",
"@####@@@@@@@#@@@#@+@#@@+@@+++@#@##@@###&&#@@+++@@++##@@++@@@##@@",
"#@##@@@#++@@@#@#@++#@@@@+++@##@##@##@@@##@++@@@@+###&#@@@+##&&##",
"@##@@@#&#+++@@@@@@++@@+@@+++#@@@@+@##@##@@@++#@@##&&&&#@@##&&###",
"##+@@#&&#@@+++@@@@@@++++@@##@@@++@@++@@@@++##@@#&&####&&@@@##&&&",
"@+@@@&#&@++++@++@#@++@@#@@@##@++@@@@++@#@@##@@#&&####&&#@@@@##&#",
"++@@#&##&@+@@++##@#&&##@@###&&@@+@++@@@@##@@+@##&##&&##@@$@##@#@",
"@++###&###@+#@@@##&&##@###&&&##@@++@#@#&###@++@##&##&&@@$$$%@#@@",
"@@@#@#&#@@##@@##&&&#&&##&&###&&#++@@@###&&&#@+@@######@#%$%$%%@#",
"#@@@@@##@##@@#&&#&&&&##&#&&#&&##@+@###&&##&&@+@##@###@##@%$%%@#&",
"&##@@@#@@@@##&&######&#####@@##@#$$@#&#&&##@@@++@@@##@@#@@%%#@@#",
"&&##@+@@+@@@###&####&&&##@##@@##$$$$####&&##@@@++@##@@@@#@@@@##@",
"&#@@+@@+@++@@@@####&##&&@#@@##@$$%$#######@@##@@@++@##@@@@++@@##",
"##@@@@@@++@@@#@@#######&#@@@@##%%$%@###@###@@##@++@+@##@@@@+++@#",
"#@#@++++@@#@######@#####&##@@@@@%%@#@@@#####@@@@@@@@@@@#@@###@++",
"@@@@@+@@@@@##@@##@@@#@####@@@#@##%@@@@###@#@@@@@##@@##@@####@++#",
"@#@@@@#&&##++#@@##@@@#######@@##@@@@###@@@@###@##@@@@#####&#&&#@",
"@@#@##&#&&@@++@##@@######&&###@@+@@##@@###@@###@@@+@@@##&&###&&#",
"#@#@@##&###@@@++@@@@#@@####&&&##@++@@###&&###@+@++##@#&&&##&&#@#",
"@#@@##&&&#@#@+@++@#@+@##@@##&####@++@@+##&&#@@@++##@#&#&#####@@@",
"#@@@@@##@@@++#@@@+@##++@##@@###@##@@++@@@##&#++@@@@######@@###@#",
"###@@##@@@++@@##@@##@#++@#@###@+@@#@@++@####++@+@@@@#@##@@#####@",
"##@@@+@@++@@@##@@@++@@@@@@#@@++@@#&&@@++@#++@@@@##@@@@#@###@@###",
"#@#@@@+++++@@@@@@++@++@@@@@+++##&&&#&++@#@@++@###@##@#@@####@@@#",
"@@@##++@@+@@#@@##@@@@+++@@@@+##&&#######@@+@###@@##@++@#@##@#@@@",
"@@##@@@+@@###&##@@@@+++@+$$@@+@#&&##&##@@++@@###@@@@@++@@#@@@@++",
"@#@@@@@@@#&#&&&####@@+@@$$$$%%@@##&&#@@++@@@@++@@@###@@+@@#@++@@",
"#@@@##@#&&&&&##&&###@@+$$$%%%@#@@##&&##@++@@++@@####@@@#@@@++@#@",
"&##@@@#&&##&##@##@#@##@@$%$%@@@##@@@##@#@@++@@@##@@@@#####+@++@#",
"#&##@@@###&##@@@##@@@##@@%#@@@##@@@##@@@#@@++@@@##@@#@@##@##@@##"
};
