/* XPM */
static char *result[] = {
/* columns rows colors chars-per-pixel */
"64 64 6 1 ",
"  c #111B21",
". c #0D1217",
"X c #052A32",
"o c #05625D",
"O c #034150",
"+ c #194648",
/* pixels */
"   ............ .  ...              XoX    .  ....        XOX   ",
" .    ..........  ...                X      .....          X    ",
"...  .............           X       X       ..            X   .",
".....  ..........           XXX            .....              ..",
"..........   ..  ....     .. X           .......             .. ",
"......... ..    .  .....   ..             .......            .. ",
" ..........    X  .....  ......           . ...  .          ..  ",
" ........      X    ..........    ..       ..                .  ",
"  ......      X+X     ............       . .     X            . ",
"   .. ..    XX+++XX   .............      ...     X              ",
"   .  ...     X+X    ...........        ....    XoX             ",
"  .    ..      X     ..........         . ..  XXoooXX           ",
"       . .     X    ..  ....... .     X   ...   XoX    .      X ",
"         .          .     .......    XXX   ..    X     .     XXX",
"                   .        ....  .   X    ...   X   . ..     X ",
"                           ..... ..      .......      ...       ",
"                          ..........      ........   ....       ",
"      X                      .........  .........  .......      ",
"     XXX                  X ................................    ",
"      X                   X   ............  ................. . ",
"                         XOX   .......     ...............  ....",
".  .                   XXOOOXX .....     ...  ..........      ..",
". .     ..               XOX    ...   X   ...   .....  .. X  ...",
"...   ...                 X     ...   X        .......    X    .",
"... ...   X               X    ...   XoX     .......  .. XOX    ",
".. ..... XXX              ..  .... XXoooXX    .......  XXOOOXX  ",
" .........X             ............ XoX   ...........   XOX    ",
" ........  ...  ..     ..  ........   X   ..  ......      X     ",
"  ...  ......  ....       .......     X     ......        X     ",
"  ....   .......  ..       .... ..          .......             ",
"   ....    X  ...    ...     ...           .........            ",
"  ..       X   ... ....     ......        .........             ",
"          XoX    ....   ...........      ............      X    ",
"        XXoooXX ......   .....  ....     . .............  XXX   ",
"          XoX ..  ..........  ....         .......   ..    X    ",
"           X ..  .........   X .          . .....   ..          ",
"           X       ........ XXX           . .......             ",
"                 .  .....    X              .........           ",
"                .. .....  .                .........            ",
"                ........  .               . ... ...... ...      ",
"               .. ...... ..         .     ......  .......       ",
"               .  .........         ..     ......   ..  ....    ",
"    .              .......           ..    ....  X   ..   ......",
"    ..             ..... .           . .  ....   X      ....... ",
"     . .       X    ....               .  ...   XOX    ......   ",
"     ...       X    .....             .. .... XXOOOXX .  .....  ",
"      ...     X+X.  .....         X   .......   XOX     ....    ",
"       ...  XX+++XX ....          X   ....... .  X        ...   ",
"        .. .  X+X . ...   ..     X+X   ........  X          ..  ",
"        ...... X  .......  ... XX+++XX.........          .....  ",
"   ..    ....  X ............ .. X+X  ........          ....... ",
" ..    X ...... ............   .. X ............          ......",
"..    XXX ....................   .X..........  ..  ...   .......",
"..     X .......................  .............  ....   ........",
"...      . ...................................  ...  ........ ..",
"...    .   ..........  .............................  ....   ...",
"... .  ..  ......   ..  ...   .......  .................   .....",
"...... ...  ....  ..  X   ..   ...  ..  .............. ..   ....",
"........... .......   X      ...      ..  .............    .....",
".................    XOX      ...        .................     .",
"................   XXOOOXX           X      ........   ..  X  ..",
".................    XOX             X    .........   ..   X    ",
" ..................   X             XoX .  ......  ..     XOX   ",
"  ..................  X           XXoooXX.......  ..    XXOOOXX "
};
