/* XPM */
static char *result[] = {
/* columns rows colors chars-per-pixel */
"64 64 10 1 ",
"  c #819988",
". c #A2AF86",
"X c #6E757B",
"o c #40576C",
"O c #034150",
"+ c #052A32",
"@ c #111B21",
"# c #0D1217",
"$ c #05625D",
"% c #194648",
/* pixels */
"  .  XX  XXXXooooXXXXoXoooooXXXXXoooooXXXXXXoooooXoXoXXXXX  ..  ",
"..  XX  XXXooXXoooXXXXoooooXXXXXXXoooooXXXXoXoooooXXXoooXXX  .. ",
"...   XXXXXXooXXXoooXXXXXoooXXXXooooXX  XXXXXooXooXXX XoooXXX ..",
".  XXXXXXX XXXXXoooXXXXXoXXXXXXoXoXX   XXXoXooXXoXX   XXXooX ...",
"  XXoXXXX  XXXXXXoXXXXXXXXX XXXXXX   XXXXXooXo XXX X   XoXX    .",
" XXXXoXX X XXXX XXoXXXXXXX    XXXXX     XXXoXX  XX X X  XXXXX   ",
" XXoXoXXXX  XXXX XXXXXXXX              XXXXXXXX X   XXXXXXXXXXX ",
" XXooXXX XX XXXX XXXXXXXX XXX        XXXXXXXXXX    X  XXXX XXX X",
"XXoooXX  XXX XXX  XXoXXX   XXXX       XXXXXoXXXX       XXX  XXoX",
"XXXoX X XXXX  XX  XXoXXX  XXXX      XX  XXXoXXXX        X X XXoo",
"XXXXX   XX X  X  XXXOoXXX X        XX XXXXoOXXX            XXooo",
"XXXXX   XX  X    XXoOooXXXXX XX       XXXXoOoXX X          XXooo",
"XXXX  X X   X   XXXoOOoXXXXXXX      XXXXXoO+oX  XXX      XXXooXo",
"XoXX  XXXX      XXXoOOOoXXXXXXXX XXXXXXooOO+oX XXX        XXXoXX",
"oXXX XXX X    X XXoO+OOOooXXXXXXXXXXXoXoOO++OoXX    XXXXX   XXoX",
"oXXX XXX      XXXXoO+OO+OooooXXXXXXXXXoO+O@+OooXX XXXXXX   XXXXX",
"oXoXXXX XX  XXXXXoOO+O+++OooXXXXXXXXooOO+++@+OoooXXXXX  XXXXXXoX",
"oooXXXXXX  XXXXooOO+@++@++OOoXXXXXooOO++@++@+OOoXXXXXXXXXXXXXXXo",
"XoooXXXXXXXXoXooOO++@+@@+++OOOooooOOO++++@+@@+OOooXXXXXXXXXXXoXo",
"XoXoXXXXXoooXXOO++++@@+@@+@O++OOOOO+O+@+@@#@@++OOOoooXXXXXXXXooo",
"XoXXXXXXooOOOO+@@++@@@@@@@@+++OO+O+@++@@@+##@@++OOOOOOooXXXXoooo",
"XXXXXXXXXXooO+++@@+@@##@@+@@+@+O++@@+@##@+#@#+OO+++OooXXXXXXoXoo",
"XXXXXoXXXXXooOOO++@@####@+@@@@++O++@@##@+O+#@@++++OooXXXXXXXXXoo",
"XXXXoXXXXXXXooO++@@#@#@@+$+@@@+@++@+@@++OOO++@@+OOoXXoXXXXXXXXXo",
"XXoXoXXXXX XXXoOO+@@@@++$$$++#@@+@@@@@@@+O+@@@+OOoXXXX    XXXXXo",
"oXooXXXXXX  XoooO++@@@@@+$+@####@@@@##@@@+@@+++OoXXX        XXXo",
"ooXoXX  XX  X XooO++++@@@+@@@@@#####@@@@@+@++OOo        XXXX XXX",
"ooX   XXX     XXoO++@@@@@+@#@@#####@@@@+@@@@++OoX      XXXXXXXXX",
"oo   XX X      XXoO@@##@@#@+#####@@#@++@@@+++OXXXX   XXXXXXXXXXo",
"ooXX  X  X     XXXO+##@@#@+++#####@@+++++++OOOXX      XXXXXXXXoo",
"oXoXXX   XX   XXXXoO@@@##@@+#@@#@###@@#+OOOOOoX         XXXXXooo",
"oXooXX    X  X  XXoO+@++##@@##@@######@@++OOOoX          XXXXoXo",
"oXXoXX         XXXoO++@@@#@###+@@##@@##+++++Oo     X   X XXXoXXo",
"ooXXXX         XXXoOOO++@@@@#+++@@##@@@+@+++Oo X   X   XX XXoXXo",
"ooXXX         XXXXOOO++++@@@@@+@@+#@#@++@+@++OXX  XX  XXX XXXXoo",
"ooXX  X     X XXXoO++++@@@##@@#@@+@@@@@+@@++OOoXX X   XXXXXXXXoo",
"XooX XX  X  XXXXoO+++@++@@@###@@+O+@##@@+@+OOOOoXX     XXXXXXooo",
"oXoXX X XX XXXXooOOO+@@+@#@@#@++OOO++###@@++++OooXX    X XXXXooo",
"oXoXX XXX  XXoooOOO+@@@##@@@@@@@+O+####@@+++++++oooX     XXXXooX",
"XXXoXXXXX XXXXoOO++@@+@@##@@##@@@+##@#@@@+@+++++OoXX X  XX XoXoX",
"XXXooXXXXXXXooOO+@@@@+######@@@@#+#@@@#@++@+@++OOOooXX    XXoXXo",
"XXXXoXXXXooooO++++@@+%+######@@@@###@@#@@+@@@+O++OOoooXX XXXXoXo",
"XXXXXXXXXXooO++@@@++%%%++##@+@@@##@+@@##@@@@++++++OOoXXooXXXXooo",
"XXXXXXXXooOOOO++@@@@+%+@##@@++@+O+++@@@#@@@@@@++OOOOOOooXXXXXXoo",
"XoXXXXXXXXXXooOO++@@@+@#@@@+++OOOOO++@@@#@@+++OOOOooXXXXXXXXXXoX",
"ooXXXXXXXXXXXXooOO++@+@@@@++OOooooOO++@+@@+++++OooXX XXXX XXXXXX",
"oooXXXXXXX  XXXooOOO@@++++OOooXXXXXoOO++@@@@+OOoXX  XX XX  XXXXX",
"ooooXXXX     XXXXoO++@+O+OooXXXXXXXXooO++@@++OoooXX    X   XXXoX",
"ooXoXX XX  XXXXX  oO+++OOoXoXXXXXXXXXooOO+++OooXXXXX     X  XXoo",
"ooXXoXX   XXXX   XoO++OOooXXXX  XXXXXXooOO++OoXX X  XX  XX  Xooo",
"oooXoX         XXXooO+OooXXX     XXXXXoXoO+OoXXXX  XX  XXXX XoXo",
"XooXX   XX      XXXoOOoXoX     XXX   XXXXoOOoXX         X X oXoo",
"XooXXXXX         XXoOooX  XX  X  XX   XXXooOoXXX XX     X  XXXoX",
"oXooXXXXX        XXXOoX  XX     XX  XXXXoXoOXXXXX        X XXoXX",
"XXooXXX       X   XXoXXXXXXXXX    XXXXXXXXooXXX    X      XXooXX",
"XXXoXX XX     XX  XXXXXXXXXXXXXX    XXXXXXXoXX XX   XX  XXXXooXX",
"XXXXoXXX     XXX XXXXXX  XXXXX XX  XXXXXXXXXXXXX   XXXXXXXXXoX X",
" XXXXXXXXX XXoXXXXXXXXXX  XXX     XXXXXXXXXXXXXXXX   XXXXXXoXXX ",
"    XXXXXXXXoXXXXXXXXoXXXX      XXXXXXXoXXXXXXXXXXXX  XXXXXXX X ",
" . XXXXXXXoXoXXXXXXXXoXXXXXX  XXXXXXXoXoXXXXXXXoXXXXXXXXXXXXX   ",
".   XXX XXooXXXXXXXXXXoXXXXXXXXXXXXXXoooXXXXXXXooXXXXXoXXXX XX  ",
"...  X  XXXooXXXooXXXXoXXXXXXoXXXXXooooXXXXXXXooXXoXXooXXXX  X .",
" ....   XXXooooXXoooXXooXXXXXXoooooooXXooXXXoXXoooXXooXXXX  ... ",
"  .... XXXXXoooooooXXXXoooXXXXXXooooooXXooXXXoooooooXXXX   . ..."
};
