/* XPM */
static char *result[] = {
/* columns rows colors chars-per-pixel */
"64 64 16 1 ",
"  c #483860",
". c #573F7F",
"X c #2C2943",
"o c #2B0178",
"O c #6006AB",
"+ c #8308E4",
"@ c #211B31",
"# c #1C1421",
"$ c #FBDA74",
"% c #CC8654",
"& c #FFF0DA",
"* c #06030B",
"= c #100C1C",
"- c #271E3D",
"; c #3B2754",
": c #000001",
/* pixels */
"  ..X .. ...oO+++Ooo   ....        O++Oooo......  .. ++O   X ...",
" .. @  .. .  oO+O+o     .. .        O++Oo ....   ...+O++O  @  ..",
".   @   .     O+oo     ..             O+   ..      Oo+Oo   @  . ",
"   X@         +Oo .                   OO  .       . Oooo   @X   ",
" X@@@        +Oo           X@@@@@@@@X   O          +oo Oo  @@@X ",
"@@ X@       ++O          X@@########@@X           ++oO   o @X @@",
"    @X      +O         X@@############@@X        O+O      X@    ",
"    X@      O        X@@################@@X     ++O       @X    ",
"    X@               @@##################@@    O          @X    ",
"     @              X@####################@X              @     ",
"     @              @@####################@@              @     ",
"     @X            X@@@##################@@@X            X@     ",
"     X@            @@@@@######$$$$######@@@@@            @X     ",
"     X@           X@@@@@@@##$$$$$$$%##@@@@@@@X           @X     ",
"      @           @@@@@@@@@$$$&&$$$$%@@@@@@@@@           @      ",
"      @X         X@@@@@@@@$$&&&&&&$$$%@@@@@@@@X         X@      ",
"       @        X@@@@@@@@$$&&&&&&&&$$$%@@@@@@@@X        @       ",
"       @X      X@@@@@@@@@$$&&&&&&&&$$$%@@@@@@@@@X      X@       ",
"       @X    X@@@@@@@@@@$$&&&&&&&&&&$$$%@@@@@@@@@@X    X@       ",
"       *@XXX@@@@@@@@@@@@$$&&&&&&&&&&$$$%@@@@@@@@@@@@XXX@*       ",
"       X*@@@@@@@@@@@@@@@$$$&&&&&&&&$$$$%@@@@@@@@@@@@@@@*X       ",
"       @*@@@@@@@@@@@@@@@$$$&&&&&&&&$$$$%@@@@@@@@@@@@@@@*@       ",
"      X@*@@@@@@@@@@@@@###$$$&&&&&&$$$$%###@@@@@@@@@@@@@*@X      ",
"     X@@@*@@@@@@@@@@#####%$$$$&&$$$$$$%#####@@@@@@@@@@*@@@X     ",
"   X@@@@@*@@@@@@@@####### %$$$$$$$$$$% #######@@@@@@@@*@@@@@X   ",
"XX@@@@@@@*#@@@@@########@X %$$$$$$$$% X@########@@@@@#*@@@@@@@XX",
"************##@########@XX  %%$$$$%%  XX@########@##************",
" XXXXXXXXX .**#########XXXX   %%%%   XXXX#########**. XXXXXXXXX ",
".  XXXXXXX . X*#######@XXXXX        XXXXX@#######*X . XXXXXXX  .",
" ... XXXXXX. XX*######XXXXXXXX   XXXXXXXXX######*XX .XXXXXX ... ",
"XX  XXXXXXX . XX**####XXXXXXXXXXXXXXXXXXXX####**XX . XXXXXXX  XX",
"XXXXXXXXXXXX . XXX****@XXXXXXXXXXXXXXXXXX@****XXX . XXXXXXXXXXXX",
"######XXXXXXX ..  XXXX*# . XXXXXXXXXX . #*XXXX  .. XXXXXXX######",
"***==*##XXXXXXX .... XX#X .. XXXXXX .. X#XX .... XXXXXXX##====**",
"**==*==*#XXXXXXXX   XXX#XX  ........  XX#XXX   XXXXXXXX#=====***",
"===--====#XXXXXXXXXXXXX#XXXX        XXXX#XXXXXXXXXXXXX#=====***=",
"o-;;;--===#XXXXXXXXXXXX#XXXXXXXXXXXXXXXX#XXXXXXXXXXXX#====*==*Oo",
"OOO;--==**=#XXXXXXXXXXX#XXXXXXXXXXXXXXXX#XXXXXXXXXXX#======*OOoo",
";oOOo=***===##XXXXXXXXX#XXXXXXXXXXXXXXXX#XXXXXXXXX##**==*=OoO==-",
"-==oOO=*=O:*=*#########@################@#########*****=OooO*=--",
"==-=oOOOOOooOoOO+++Oo:**===********:::***=*:**==**::*:*oo*:**=--",
"====**OoooOOoOO+++O+O::**=*=******::****==******=**:::o*::**==-=",
"==**=:**oOOoo**ooooO+*********=**:=***======******:::*:::*===-==",
"===**==:::oo******ooO+::*****=**:::=***==--===***:::*::****=--==",
"*=====**:::*oo*****:oOO*****==::===**==--;;;--==::=***=*====-=*=",
"=*=====**:*==oo*****:oO+***==::==**===--;;---==:==*****====-=*==",
"=**=****=====**o******O+O*****==****-;;;--=-=====***========Oo==",
"=*=:**======*==*******++O*=**==**==-;;---===-===**===-===OOOo===",
"*::*===-=--==-==*==***+Oo**====*==;;---======***====--O;OoOo=:==",
"::*===----;;-====*****Ooo***==*==-;--=--=O====*=*=---;OOoo=::::=",
"*===---;;;--===******ooo========-;-==-====O====*===-;ooOO*==::::",
"=*=--;;;---==*******ooOO**======--========oO======-ooOO**=-=::==",
"==-;;;;-====******=oOOo**======---=-====**Oo*=====ooO;;---==:=*=",
"=-;;--;;-==*****ooOOO**========-=--======*Ooo*===OOO=-;;-==::=**",
"----==--;--==**oOOoo****==*=======-===**=OOOooOOooOO===-===:===*",
"*=-==-==--====oOO:::***:**:*-========***OO++OOoOOoOo===========*",
"**=====--==**oOO::*****:::=--=========*O+++**::ooOOoo===**==**==",
"*=--==-===***oO*:***=*:::*=-=====***==O++O*:**:::ooOo*===******=",
"=*=---==****=Oo***==*:**==----====***OoO==**:::::*ooo:*====*****",
"*===---******oo*===****==----=---==**Oo==**:::::*::oOo*******=**",
"=====*******Oo====***===--==----==*=oo*====**::::::O+O******=-==",
"======*****:OO*==*****====-===-=====*o===***:::::::o++***=====--",
"==*****:**::Oo**=**::***==**=*==***===o=***::*::****O++*=*=----=",
"=*=*****::::*o*=****::***==****==***==**==*===**:**==+==*=---;;-"
};
