/* XPM */
static char *result[] = {
/* columns rows colors chars-per-pixel */
"64 64 8 1 ",
"  c #100C1C",
". c #06030B",
"X c #000001",
"o c #6006AB",
"O c #271E3D",
"+ c #3B2754",
"@ c #2B0178",
"# c #8308E4",
/* pixels */
"  .. ..XXXXXX.o....X..XX..X...... ..    O++O   .. ..  O  OO+++OO",
"    ..XXXXXX.X@ooXX..XX....XX.....    OO++O  .....  O  OO+++OOO ",
". ..XX.X..XXX..@oo@@...X.XXX.. .  O  +++O   ....   OOOO+++OOOO  ",
" .XX.....XX.XX....X@@@  XX.....  O  +++O     .X..   OO+++OOOO   ",
".XXXX...X..   .. .    @.XXX..   OOO+OO   .. .XX.   O++OOOO  O ..",
"..XX........    ...   .XX...  OO++OO    . ..XoXX   O+++O   . ...",
"...X.... . ..  O    . ..XX.    O+O       ....Xo.  O++OO  .......",
".........     OOOO   ..XX.    O+O O   .   ..X.@.  O+OO  .... ...",
".X.X. .  O OOO++++O ..X...   ++O OOO   . ....@@    OOOO . .  ...",
"XXX..   OOOO+++++O   ..X...  +O       .......@o      OOO  . ..X.",
"XX..   OO+++OO++OOO   .. .  +O .    .  ...XXo# .  . OOO    ..XX.",
"XX... OO++OOOOO++OOO ..     O   .. .    .XX.##....    O   @..X.X",
"@..  +++OOO   +O    O    .       ....  ...X#o@...XX... O.@..X.XX",
"X@@O++OOOOOO           oo         .. ....Xo@@.XXXXXX.o. o@....XX",
"XX@@@O++O   O        .. o@o.    ..  ...##@@@XX.X..X..Xoo@@XX.XXX",
"X..@@@+O        .  ... ..o@@@@...   @o##oo@XX....X.XXX@o@..XXXX.",
".X   +@       ..    ....o@o@@##ooo###oo@@XX.XX.......XX@.XXXXX..",
"... O+      ...      .oo@@@@ooo#######@@XX.X........XXX@@.XXX...",
".. . O   @.  ....  @@o@@oo.XXX##oo##ooXX..... .....XX..X@@XX..X.",
".        o@.  ..@o#o@@o.XX..XX o@oo##...X..    .......XXo@XXXX.X",
".      ...@@@o##o@@@.  ..XXXX.. @@oo.....     .. ........o@XXXXX",
"X..     .@o@o##@@@....... .X. ..  .@@o..  O     ........Xo@@XXXX",
"X.  . ..@o##@@X..  ...   ..   ++O ..@@@  O+++O   ...X.XXX.oo@oXX",
"#    .@@o##oX...  ..  OO    O++O   .X..oOOO+++O ..@..XX..X.@@@@o",
"o###oo#@@XX..       O++OOO+++O    .XX.  O+++OO   oXXXXXX....o@o#",
".o####oo.XXX..    OO++OO++++O@O  .X... O+++OO  .o@XX.... ......X",
"X..o#o.XX...  O O+++++++OO+O  @...... ++OOO  . @@..XX.    ......",
"XXX...XX...  OOO++++OOO++OO  .@@.... ++O O  ..oo@....X. OO  . ..",
".X........ OOO++OO+O     O .oo@@o ....   ....o#oX..   O+++O  . .",
"...XX.... . O++OO         o#o@oo@o..... ....o#oX..  OO++++++O  .",
".XX.XXX.   O++OO         ##o   ooo@........@##@.   OO++OOO O+O  ",
"X.XXXX..   +++O O       ##@      oo@.......o#o@.. OO++OO    OO  ",
".XX....   O+OOOO    .  #oo      O oo@@....o##o .  ++OO       O .",
"...  .... +O O     ... ##..   OOOO  o@@@X.o#o..  O+OOOO       ..",
"..  .  .  OO    ..  ..##    OO O .....#o#o#o  .  ++OO        ...",
"   OO     O   .  ..@ .#o.  OO+O .. ..XX###oX.   O+O O       ... ",
"@O+++OO     ........@.o# OO++O    ..XXXXo#o...  OO O      .  .o@",
"ooo+OO  ..     ...X.ooo@@ ++O    .....XX@o@.X..  O         .oo@@",
"+@oo@ ...     ..XXo@@o@@@oOO  .......XX@@oXXXX .    ..  . o@o  O",
"O  @oo . oX. ...oo@@o@ .@@oo........XXX@o.XXX     ..... o@@o. OO",
"  O @ooooo@@o@oo###o@X..   .@......XXX.@. .X..  ..XX.X.@@.X.. OO",
"    ..o@@@oo@oo###o#oXX.. . ......XX..@.  ...... ..XXX@.XX..  O ",
"  .. X..@oo@@..@@@@o#......... ..X ...      ......XXX.XXX.   O  ",
"   ..  XXX@@......@@o#XX..... ..XXX ...  OO   ...XXX.XX.... OO  ",
".     ..XXX.@@.....X@oo.....  XX   ..  OO+++OO  XX ... .    O . ",
" .     ..X.  @@.....X@o#...  XX  ..   OO++OOO  X  .....    O .  ",
" .. ....     ..@......o#o.....  ....O+++OO O     ...        o@  ",
" . X..      .  .......##o. ..  ..  O++OOO   O   ..   O   ooo@   ",
".XX.   O OO  O  .  ...#o@..    .  ++OOO      ...    OOo+o@o@ X  ",
"XX.   OOOO++O    .....o@@...  .  O+OO OO o    . . OOO+oo@@ XXXX ",
".   OOO+++OO   ......@@@        O+O  O    o    .   O+@@oo.  XXXX",
" . OO+++OOO  .......@@oo..      OO        @o      O@@oo.. O XX  ",
"  O++++O    ...... @oo@..      OOO O    ..o@.     @@o++OOO  X . ",
" O++OO++O  .....@@ooo..        O OO      .o@@.   ooo O++O  XX ..",
"OOOO  OO+OO  ..@oo@@....  .       O   .. ooo@@oo@@oo   O   X   .",
". O  O  OO    @ooXXX...X..X.O        ...oo##oo@oo@o@           .",
"..     OO  ..@ooXX.....XXX OO         .o###..XX@@oo@@   ..  ..  ",
". OO  O   ...@o.X... .XXX. O     ...  o##o.X..XXX@@o@.   ...... ",
" . OOO  .... o@...  .X..  OOOO    ...o@o  ..XXXXX.@@@X.    .....",
".   OOO......@@.   ....  OOOO OOO  ..o@  ..XXXXX.XX@o@....... ..",
"     .......o@    ...   OO  OOOO  . @@.    ..XXXXXXo#o...... O  ",
"      .....Xoo.  .....    O   O     .@   ...XXXXXXX@##...     OO",
"  .....X..XXo@.. ..XX...  .. .  ...   @ ...XX.XX....o##. . OOOO ",
" . .....XXXX.@. ....XX...  ....  ...  ..  .   ..X..  #  . OOO++O"
};
