/* XPM */
static char *result[] = {
/* columns rows colors chars-per-pixel */
"64 64 207 2 ",
"   c #393937",
".  c #3A373B",
"X  c #323E3E",
"o  c #393939",
"O  c #3A3644",
"+  c #353B40",
"@  c #2B494A",
"#  c #314549",
"$  c #2D5457",
"%  c #335157",
"&  c #256B70",
"*  c #276C71",
"=  c #4F4642",
"-  c #767C83",
";  c #651AC6",
":  c #6D14DD",
">  c #5F2ADB",
",  c #7527DB",
"<  c #7A2BDD",
"1  c #7C34D8",
"2  c #6E14E9",
"3  c #7112E7",
"4  c #741CE5",
"5  c #7213ED",
"6  c #741BEB",
"7  c #791DED",
"8  c #6F0EF7",
"9  c #6F0FF9",
"0  c #720FF6",
"q  c #720EFB",
"w  c #6F11F4",
"e  c #691AF6",
"r  c #6F12F9",
"t  c #6A19F8",
"y  c #7111F3",
"u  c #741BF0",
"i  c #7210FA",
"p  c #5F26EE",
"a  c #5E2AED",
"s  c #5237EE",
"d  c #5938ED",
"f  c #6D24EE",
"g  c #7522E5",
"h  c #7925E5",
"j  c #7629E2",
"k  c #7D2BE5",
"l  c #7621EA",
"z  c #7B24EA",
"x  c #7D2BEA",
"c  c #7D32E2",
"v  c #167DD8",
"b  c #3A69EA",
"n  c #3B7EF2",
"m  c #4F57DB",
"M  c #5252DD",
"N  c #4869C2",
"B  c #4771CE",
"V  c #4B46EC",
"C  c #5142E7",
"Z  c #564BE2",
"A  c #5849E2",
"S  c #4B55EC",
"D  c #4A59ED",
"F  c #5340F0",
"G  c #446AED",
"H  c #8439DD",
"J  c #822EE8",
"K  c #8234E4",
"L  c #843CE3",
"P  c #893EE4",
"I  c #8436E8",
"U  c #8130F0",
"Y  c #8443DB",
"T  c #8A48DA",
"R  c #904CDE",
"E  c #9154DB",
"W  c #985EDA",
"Q  c #9B64DE",
"!  c #A36CDC",
"~  c #A676D8",
"^  c #8642E1",
"/  c #8C44E3",
"(  c #8E4AE3",
")  c #8D43EA",
"_  c #924CE3",
"`  c #934BE8",
"'  c #9655E2",
"]  c #9758E7",
"[  c #9B5BE5",
"{  c #9D62E2",
"}  c #9D69E2",
"|  c #A163E5",
" . c #A46BE4",
".. c #A76AE8",
"X. c #A571E3",
"o. c #AB74E5",
"O. c #AD7AE3",
"+. c #AE79E9",
"@. c #B27DE6",
"#. c #B37CE9",
"$. c #1B8E95",
"%. c #1F8C94",
"&. c #25848C",
"*. c #278C94",
"=. c #2E989B",
"-. c #1C9BA9",
";. c #239BA4",
":. c #1CA2AB",
">. c #19AAB3",
",. c #1BB2BD",
"<. c #22A1AB",
"1. c #24A9B7",
"2. c #27B6BE",
"3. c #7D828B",
"4. c #6095AB",
"5. c #68B5BE",
"6. c #1B8FDC",
"7. c #1896DC",
"8. c #2583DB",
"9. c #1FAEC2",
"0. c #18BCC8",
"q. c #23AEC2",
"w. c #23BAC6",
"e. c #26AAD4",
"r. c #25B9D9",
"t. c #3A85EA",
"y. c #2D9FF2",
"u. c #3690F1",
"i. c #3497F2",
"p. c #309FF0",
"a. c #1EB1E7",
"s. c #1AB9E7",
"d. c #31A7EE",
"f. c #23BBE1",
"g. c #2EA1F2",
"h. c #24B6F1",
"j. c #2EB1F6",
"k. c #7EA1CD",
"l. c #18C2CD",
"z. c #18C8D6",
"x. c #15CDDA",
"c. c #16D6DF",
"v. c #22C1CE",
"b. c #23C6DB",
"n. c #19C7EC",
"m. c #0BDEEC",
"M. c #14D5E3",
"N. c #1BD4E2",
"B. c #17DBE7",
"V. c #13DDEC",
"C. c #19CBF4",
"Z. c #1BCDF6",
"A. c #1BCDF9",
"S. c #0EDAF4",
"D. c #14D6F6",
"F. c #1AD2F4",
"G. c #16D8F6",
"H. c #2FCAEB",
"J. c #22CCF5",
"K. c #0DE1EF",
"L. c #12E0EA",
"P. c #07E7F7",
"I. c #0DE5F5",
"U. c #0AE9F7",
"Y. c #0CE6F9",
"T. c #03EAFD",
"R. c #0AE9FA",
"E. c #11E3F4",
"W. c #11E1F9",
"Q. c #80848D",
"!. c #868C95",
"~. c #8B949E",
"^. c #939AA4",
"/. c #989DA7",
"(. c #9BA3AD",
"). c #BDAEAA",
"_. c #CBB399",
"`. c #D9B89C",
"'. c #B3C5AE",
"]. c #AA83DA",
"[. c #B289DC",
"{. c #BC98DD",
"}. c #AE81E3",
"|. c #B483E4",
" X c #B78CE4",
".X c #B98BE4",
"XX c #B483EA",
"oX c #BA8CE9",
"OX c #BD93E5",
"+X c #BF99E3",
"@X c #BE93EA",
"#X c #C0A0DF",
"$X c #C195E6",
"%X c #C39CE5",
"&X c #C192EA",
"*X c #C39AEA",
"=X c #C99FE9",
"-X c #C6A2E5",
";X c #CAAAE5",
":X c #C6A3E9",
">X c #C9A5E9",
",X c #CAA8E8",
"<X c #CFB5E2",
"1X c #D3B6E7",
"2X c #D4BAEA",
"3X c #DAC3EA",
"4X c #E2C8F1",
/* pixels */
"T.T.T.T.T.T.T.R.>.<.,.I.I.T.T.T.T.R.R.Y.x.U.U.U.:.U.T.T.T.T.T.T.T.T.T.T.T.T.T.T.T.T.T.T.T.T.T.T.T.T.T.T.T.T.T.T.T.T.R.P.& o o o ",
"T.T.T.T.T.T.T.T.T.T.T.K.I.0.S.M.V.V.$.z.* &.v.$.%.U.T.T.T.T.T.T.T.T.T.T.T.T.T.T.T.T.T.U.h.i.i.i.i.i.i.i.i.i.i.i.i.i.i.t.N N N N ",
"T.T.T.T.T.T.T.T.T.T.T.K.Y.<.:.V.L.V.l.L.B.:.B.>.E.T.T.T.T.T.T.T.T.T.T.T.T.T.T.T.T.T.R.;.m 9 i i 9 i q q i q q q q q q i i r i 9 ",
"T.T.T.T.T.T.T.T.T.T.T.I.Y.E.E.Y.Y.U.I.T.Y.E.Y.Y.R.T.T.T.T.T.T.T.T.T.T.T.T.T.T.T.T.T.I.o m e e e t e e e e e e e t e e t e e e e ",
"T.T.T.T.T.T.T.T.T.T.T.K.I.* <.&.2.B.=.* & & *.*.m.T.T.T.T.T.T.T.T.T.T.T.T.T.T.T.T.T.S.o M e e t t t t t t t t e t t t t t e e e ",
"T.T.T.T.T.T.T.T.T.T.T.Y.I.c.l.x.9.E.0.x.0.B.l.N.R.T.T.T.T.T.T.T.T.T.T.T.T.T.T.T.T.T.L.. M q 0 0 y w y i y q 5 3 0 0 y i i i y i ",
"T.T.T.T.T.T.T.T.T.T.T.T.R.T.U.R.R.R.R.R.Y.Y.R.R.R.T.T.T.T.T.T.T.T.T.T.T.T.T.T.T.T.T.E.. M q u .X:X' 0 $X[ =XX.H ! P ;X,Xg H o.) ",
"T.T.T.T.T.T.T.T.T.T.T.T.R.A.A.A.A.A.A.A.A.A.J.J.A.A.Z.A.A.A.Z.Z.A.A.A.A.A.A.F.A.A.A.H.. M q 9 ..,XU 6 < y ..5 ! 4 @.@X$X+X~ 4 _ ",
"T.T.T.T.T.T.T.T.T.T.Y.U.E.9 q q i q q q q q q i i q i i q q q q 9 i q 9 q q q q q q 3 O M q z oX| 0 q | ..( XX4 |.2 &X| z g @.` ",
"T.T.T.T.T.T.T.T.T.T.B.X 2.9 q q q q q q q q q q q q q q q q q q 9 q q q q q q q q q 5 . M q q q q 0 q i i i i i y q i i y i i i ",
"T.T.T.T.T.T.T.T.T.B.z.  q.9 q q q q q q q q q q q q q q q q q q i q q q q q q q q q 5 . M q I y | &X..$Xo.$X..4 .X5 | 6 |.[ ] #.",
"T.T.T.T.T.T.T.T.T.X     q.q q q q q q q q q q q q q q q q q q q q q q q q q q q q q 5 . M q I _ OX2Xh <X=X1X7 h 4 ~ }. .$XL [.' ",
"T.T.T.T.T.T.T.T.T.X . o q.q q q q q q q q q q q q i i i i i q q q i q q q i U q q q 5 . M i h ! 1X>X` O..X:X) z O.T L |.=X$X[ $X",
"T.T.T.T.T.T.T.T.T.X o o w.j.j.j.j.g.j.j.j.j.j.g.j.j.j.j.j.j.j.j.j.j.j.j.j.j.j.j.j.j.d.. M i i i 0 y 0 0 y y y i w 0 i y 0 0 0 0 ",
"T.T.T.T.T.T.T.T.R.X o o q.i i i q q i i i i q q q q i i i i i i i i i q i i i i q q 5 . B A A A Z Z A Z Z A A A Z Z A Z Z A Z Z ",
"T.T.T.T.T.T.T.T.T.X . . q.i q q q q U q q q q q q U i i q q q q q q q q i i i q q q 5 . . . . . . . . . o O . . . . . X o o o o ",
"T.T.T.T.T.T.T.T.T.X o o q.9 q q q i q q q q q i i i q q i q q i q q q q q q q q q q q y 0 8 0 0 y y w y y y y y y w w r.. o o o ",
"T.T.T.T.T.T.T.T.T.X o o q.9 q i q D g.y.g.y.y.g.g.g.g.g.g.g.g.p.d q q q q q q q q q q q q q q q q q q q q q q q q q i f.. o o o ",
"T.T.T.T.T.T.T.T.T.X o o q.9 q q q n Y.T.R.T.R.T.T.T.T.T.R.T.T.R.D q q q q q q q q q q q q q q q q q q i q q q q q q q f.o o o o ",
"T.T.T.T.T.T.T.T.P.# o o q.i q q q t.R.j.V V W.T.R.T.T.R.R.T.T.T.S q q q q q q q q q q q q q q q q q q q q q q q i q i f.o o o o ",
"T.T.T.T.T.T.T.T.T.X o o q.q q q q n A.D Y.E.Y.T.n.Y.T.R.F.E.T.R.D q q q q q q q q q q q q q q q q q q q q q q q q q i f.o o o o ",
"T.T.T.T.T.T.T.T.T.+ o o q.9 q q q n u.J.T.R.R.R.C E.Y.R.t.J.R.R.S q q q q q q q q q q q q q q q q q q q q q q q q q q f.o o o o ",
"T.T.T.T.T.T.T.T.T.X . . q.q q q q n g.p.R.R.I.s e a g.s f a b Y.S q q q q q q q q q q q q q q q q q q q q q q q q q q f.o o o o ",
"D.D.S.S.G.G.G.W.D.X o . q.9 q q q n Y.C D S D.Y.C I.T.P.u.F.R.T.S q q q q q q q q q q q q q q q q q q q q q q q q q i b.% $ % $ ",
"i q q q q q q q q . . o q.9 9 q q n R.Y.I.S.R.R.S.R.T.R.S.Y.T.R.S q q q q q q q q q q q q q q q q q q q 9 q q q q q i f.*.q.$.x.",
"q q q q q q q q q O o o q.9 q q q d G G G G G G G G G G G G G G f q q q q q q q q q q q 9 q q q q q q q q q q q q q i A.n.n.m.r.",
"q q q q q q q q 8 O o o q.9 q q q q q q q q q q q q i q q q q 9 i q q q q q q q q q q q q q q q q q q q q q q q q q q A.S.S.P.I.",
"q q q q q q q q 8 O o o q.9 q q q q q q 0 0 q q q q q i 0 0 8 0 q q q 0 0 q q 0 q q q q 9 q q q 9 q 0 q q q 0 0 q q q A.T.T.T.P.",
"q q q q q q q q 9 O   o 9.9 q q q 4 ,X .&X6 ^ ].J / [ 4X*X+.' 3XH 3Xj @X .X.K E 5 L |.+X@X5 W {.[ 0 W O.k ] +X2X$Xi q b.*.%.;.<.",
"q q q q q q q q 9 O o o 9.9 q q q i  .8 3X-XY -Xq / P [.>XX.8 $X8 =XO.0 8 ~ H E y *Xi { %Xy [ %X/ 0 ;X-Xc ~ {.%XP 5 q Z.M.c.M.V.",
"q q q q q q q q 9 O o o q.9 q q 9 0 ..8 &X6 Y @.x P y XX*XO.y &X0 3Xj +X! -X-X( O.R XX+X[  XK |.O.7 < k T 4 4X1X&X0 q J.9.>.>.x.",
"q q 9 q q q q q 9 O o o 9.9 q q q q 0 0 q q y y y y q i 0 0 0 0 9 0 q q q q q q w q i 0 q y q y q q i y 0 0 8 0 0 q q f.;.>.&.&.",
"q q q q q q q q 8 O o o 9.9 q q q y 5 w y 5 y 5 0 3 y 5 0 q q i 0 y 5 8 2 0 5 5 y y 0 5 5 5 w 5 0 y 0 q q q q q q q q Z.s.U.m.I.",
"8 q q 8 q q q q 8 O o o 9.q q q q k E ' ].U L } h #Xy $Xg h i y E ( ,X@XT K OX$XL |.H @./ R @.^ ' Q K q q q q q q q q J.G.V.P.I.",
"q q q q q q q q 8 O o o q.9 q q q z 6 *X,Xl w ) XX[.x XX4 h 3 O.$X0 ' +X1X5 +.>X] #.$XXX6 j XX| ' y o.q q q q q q q q n.<.:.;.1.",
"q q q q q q q q 9 O o o q.9 q q i z -X4 1X@.5 P X.0 +.2Xc ,X_ i l >XX.+.( K 1X@X:XX.3 X.4 h X.%XE %Xy q q q q q q q q C.a.Y.-.;.",
"q q q q q q q q 9 O o o q.9 q q i i q q 9 q q q q q 0 q i q q q q i y q q q q q q i q i q q q q q q q q q q q q q q q A.T.U.S.V.",
"q 8 q q q q q q 9 O o o q.9 q q q y k 6 u z 8 x y K 6 0 k k k k J k l y k k 6 y k i U y k k q q q q q q q q q q q q q C.Y.Y.a.D.",
"q q q q q q 9 9 9 O o o q.q q q q k , 4 1X+.-X6 6 @X .{ oXQ 6 ~ 6 [.Q y u o.h g %X3 ~ 6  .6 0 q q q q q q q 0 q q q q Z.a.6.v n.",
"q q q q q 9 q 9 9 O o o q.9 9 q q k T 4 Y <X-X` I @X . .+X~ 5 {.6 {.! q q o.k T ;X .%X .| 9 q q q q q q q q q q q q 9 D.P.P.s.s.",
"8 q q q q q q q 9 O o o 9.9 q q q 6  XK h | 6 XXK {./ 0 W .X| {.O._ [ i q _ 7 y [ [ q [ / 0 q q q q q q q q q q q q q J.R.P.C.S.",
"q q q q q 8 q q 9 O o o 9.9 q q q y 0 i q q q y q 0 0 q i i i q q q i 0 0 i 0 q q q q 0 0 0 q q q q q q q 9 q q q q q n.6.D.U.T.",
"q q q q q q q q 9 O o o q.9 q q q 9 K x / ^ k ( 0 K 5 _ R g ( 3 ) 5 7 R 4 _ g ( 4 R 0 H 4 _ 4 T 7 l J P ( 7 q q q 9 q Z.6.f.7.7.",
"q q q 8 q 8 q q 8 O o   q.9 9 q q J c 6 *XE O.l 0 .X! 6 K ` , _ < 0 _ , k , k , 0 =X@.4 5 O.J , 6 1X~ 5 |.q q q q q q J.b.N.v.v.",
"q q q q q q q q 9 O o o q.q q q q L g y %X XO.g z %X2X5 U ` , 0 H ' ( , k 1 x 1 0 =X@.3 y @.k H 6 1 3X5 |.q q q q q 9 k.(.(././.",
"q 8 q q q q q q 9 O o o q.q q q q 0 R / ) K Y | K 0 z 5 u z ! h | 5 h  ., y 6 i i ! 6 ' k  .g ! k 6 R y L q q q q q i H.(./.^.~.",
"8 q q q 8 q q q 9 O o o q.9 q q q q i 0 q q 0 0 0 y q 0 q i q 0 q q q 0 i q q q q 0 q q 9 9 q q q q 9 9 q q 9 q q 9 i A.5.^.~.!.",
"q q q q q q q 8 9 + o   q.9 q q q 5 XXz {  .7 6 7 5 | X.oXK .X2 #.K ..0 P +.P i q q q q q q q q q q q q q q q q q q i J.B.~.!.!.",
"8 q q q q q q q 8 O .   9.9 q q q I ' k j 4 W 6 h l @X0 @.0 &X%X0 +.>XW W  .y q q q q q q q q q q q q 9 q q q q q q i J.6.4.!.Q.",
"q q 8 q q q 8 q 8 O     9.9 q q q 5 , X.] L Y j g ^ :X0 |.y $X@.g %X*X .' , .Xq q q q q q q q q q q q q q q q q q q q F.6.8.Q.3.",
"q q q q q q q q 8 O O   9.9 q q q 0 h 0 6 7 w c u z y q 7 i z 9 z u U q 7 z 8 8 q q q q q q q q q q q q q q q q q q q J.U.P.4.- ",
"q q q q q q q q 8 O . . 9.9 q q q q q q y q i q q q q q q q q q q q q q q q q q q q q q q q q q q q q q 8 q 8 q q q q j.'.'.)._.",
"8 q q q q q q q 8 O o o q.9 q q q q q q q q q q q q q q q q q q q q q q q q q q 8 q q q q q 9 q q q q q q q q q q q q H.`.`.`.`.",
"q q q q q q q q 8 O o o 9.q q q q q q q q q q q q q q 9 q q q q q q q q q q 8 q q q q q q q q q q q q q q q q q q q q f.= = = = ",
"q q q q q q q q 8 O o o 9.9 q q q q q q q q q q q q q q q q q q q q q q q 8 q q q q q q q q q q q q q q q q q q q q q r.o   o   ",
"8 q q q q q q q 9 O o . q.q q q q q q q q q q q 9 q q q q q q q q q q q q q q q q q q q q q q q q q q q q q q q q q q f.  o o o ",
"q q q q q q q q 9 O o o 9.9 q q q q q q q q q q q q q q q q q q q q q q q q q q q q q q q q q q q q q q q q q q q q q f.o o o o ",
"q q q q q q q q p + o o q.9 q q i i q q q q q q q q q q q q q q q q i i q q q q i i q q q q q q q q q q q q q q q q q f.o o o   ",
"q q q q q q q p S.X o o q.F s F F F F s F F F F s F F F F F s F s d F F F F F F F F s s F F F F F F F F F F s F d d F r.o   o o ",
"9 q q q q q a W.R.X o o # @ @ @ @ @ @ @ @ @ @ @ @ @ @ @ @ @ @ @ @ @ @ @ @ @ @ @ @ @ @ @ @ @ @ @ @ @ @ @ @ @ @ @ @ @ % @ o o o o ",
"q q q q q p G.T.T.X o o o   o o o o       . . o X .     o o o   .     . . o o o .     .   .   o   o o o .     . o o o o o   o o ",
"q q q q a W.R.T.T.X o o o o o o o o o o o o   . . o o o o   o o   o o . o o o o o . .       o o   o o o     . . : : : : 3 : 2 : ",
"q q q a E.R.T.T.T.M.M.M.M.M.B.M.M.M.e.N.r.r.N.e.M.e.x.b.N.> : : : : : : : : : : : : : : ; . o o . : : : : : : 3 0 q q q q q 8 9 ",
"q q a S.P.T.T.T.T.T.T.T.T.T.T.T.T.R.E.n.S.D.n.E.s.E.n.F.a 9 q q q q q q q q q q q q q q 0 ; + o . 0 q q q q q q q q 9 q q q q 9 "
};
