/* XPM */
static char *result[] = {
/* columns rows colors chars-per-pixel */
"64 64 211 2 ",
"   c #040406",
".  c #060709",
"X  c #0B0708",
"o  c #05090C",
"O  c #12080A",
"+  c #0E0F10",
"@  c #091619",
"#  c #07191C",
"$  c #121212",
"%  c #181D16",
"&  c #1A1B1B",
"*  c #3C1512",
"=  c #1E221B",
"-  c #1E281C",
";  c #20201F",
":  c #081F23",
">  c #1B2224",
",  c #18272B",
"<  c #11373C",
"1  c #232424",
"2  c #25292C",
"3  c #292929",
"4  c #2E3A28",
"5  c #232D31",
"6  c #2A353A",
"7  c #353736",
"8  c #343739",
"9  c #3B3C3B",
"0  c #5B1D19",
"q  c #631E17",
"w  c #54221A",
"e  c #68251D",
"r  c #75271E",
"t  c #472E2A",
"y  c #553D3D",
"u  c #5A3E3A",
"i  c #7D3E37",
"p  c #3B403E",
"a  c #41403F",
"s  c #68423E",
"d  c #77423B",
"f  c #2B3C43",
"g  c #303F41",
"h  c #3D3D41",
"j  c #433F41",
"k  c #0F4851",
"l  c #0F5157",
"z  c #0E545B",
"x  c #12525A",
"c  c #374447",
"v  c #3E4344",
"b  c #354B4C",
"n  c #334D4E",
"m  c #39494B",
"M  c #274A56",
"N  c #2E545A",
"B  c #365355",
"V  c #32595D",
"C  c #165C63",
"Z  c #275A60",
"A  c #35536E",
"S  c #0F6067",
"D  c #0F616A",
"F  c #1D6566",
"G  c #11636A",
"H  c #156B73",
"J  c #1F6E74",
"K  c #0F747E",
"L  c #13747C",
"P  c #19767B",
"I  c #2C6367",
"U  c #2A676B",
"Y  c #2C666A",
"T  c #306063",
"R  c #236C72",
"E  c #2B6E75",
"W  c #297479",
"Q  c #3C737C",
"!  c #414141",
"~  c #44494D",
"^  c #4E4E50",
"/  c #594F52",
"(  c #4B5456",
")  c #505255",
"_  c #52575A",
"`  c #53585B",
"'  c #724A48",
"]  c #445768",
"[  c #5C6266",
"{  c #55656A",
"}  c #4B6B74",
"|  c #566E74",
" . c #596E74",
".. c #606267",
"X. c #61666A",
"o. c #746561",
"O. c #8A2B1E",
"+. c #842B21",
"@. c #8B2D23",
"#. c #8C3023",
"$. c #9C3627",
"%. c #973F32",
"&. c #AA3626",
"*. c #B63929",
"=. c #C33B28",
"-. c #87463D",
";. c #994638",
":. c #A54636",
">. c #BA4839",
",. c #D9432D",
"<. c #C84937",
"1. c #D64732",
"2. c #EE472D",
"3. c #F5472D",
"4. c #FB472C",
"5. c #F4482E",
"6. c #FB482C",
"7. c #EA4833",
"8. c #137883",
"9. c #247C82",
"0. c #2C7B80",
"q. c #397C86",
"w. c #2B7191",
"e. c #437C89",
"r. c #637C85",
"t. c #651BEE",
"y. c #6F0EF2",
"u. c #7707F4",
"i. c #5C28EA",
"p. c #5539EA",
"a. c #6225ED",
"s. c #3D6BE8",
"d. c #5445EC",
"f. c #4856E9",
"g. c #4468EE",
"h. c #16888D",
"j. c #168D96",
"k. c #1E9096",
"l. c #15949D",
"z. c #258186",
"x. c #22868B",
"c. c #21888E",
"v. c #258B97",
"b. c #26939B",
"n. c #359099",
"m. c #159CA5",
"M. c #1899A3",
"N. c #229AA3",
"B. c #2C99A3",
"V. c #339BA2",
"C. c #3A98A0",
"Z. c #16A4AC",
"A. c #17A9B1",
"S. c #16B0BB",
"D. c #35A4AF",
"F. c #26B0BD",
"G. c #3CB2BC",
"H. c #468C96",
"J. c #558898",
"K. c #65858D",
"L. c #698C95",
"P. c #5599A6",
"I. c #4AA3AC",
"U. c #51A1AA",
"Y. c #44ACB6",
"T. c #42B2BC",
"R. c #2496DF",
"E. c #1BB7C3",
"W. c #1BB9C4",
"Q. c #12BCC8",
"!. c #1BBAC8",
"~. c #26B5C4",
"^. c #34B9C4",
"/. c #35BEC9",
"(. c #1C9EE1",
"). c #2888E4",
"_. c #3688EB",
"`. c #2E96EE",
"'. c #3292EE",
"]. c #1DA9E7",
"[. c #1BB5EC",
"{. c #26A5EB",
"}. c #22B2E1",
"|. c #27B3F3",
" X c #16C1CD",
".X c #1AC3CC",
"XX c #13CBD7",
"oX c #0FD7DE",
"OX c #1AD2DD",
"+X c #21CDDA",
"@X c #22D1DC",
"#X c #13CFE9",
"$X c #15D9E4",
"%X c #14DEEC",
"&X c #19C8F4",
"*X c #1BCCF4",
"=X c #0DDCF5",
"-X c #14D5F5",
";X c #16D7F7",
":X c #12DCF6",
">X c #22CFF2",
",X c #0CE3EF",
"<X c #11E2ED",
"1X c #0CE4F4",
"2X c #06EAF6",
"3X c #0BEAF6",
"4X c #0CE5F9",
"5X c #03EEFA",
"6X c #09EBFA",
"7X c #10E3F7",
"8X c #11E2F9",
/* pixels */
"5X5X5X5X5X5X5X5X5X5X5X5X5X5X5X5X5X5X5X5X5X5X5X5X5X5X5X5X5X5X5X5X5X5X5X5X5X5X5X5X5X5X5X5X5X5X5X5X5X6X5X5X5X5X5X5X5X5X5X5X5X5X5X5X",
"5X5X2X5X6X5X5X5X5X5X5X5X5X5X5X5X5X5X5X5X5X5X5X5X5X5X5X5X5X6X5X5X5X5X5X5X6X5X5X5X5X5X5X6X5X5X5X5X5X3X5X5X5X5X5X5X5X5X5X5X5X5X5X5X",
"5X5X5X5X5X5X5X5X5X5X5X5X5X5X5X5X5X5X5X5X5X5X5X5X5X5X5X5X5X5X5X5X5X5X5X5X5X5X5X5X5X5X5X5X5X5X5X5X5X5X5X5X5X5X5X5X5X5X5X5X5X5X5X5X",
"5X5X5X5X5X5X5X5X5X5X5X5X5X5X5X5X5X5X5X5X5X5X5X5X5X5X5X5X5X5X5X5X5X5X5X5X5X5X5X5X5X5X5X5X5X5X5X5X5X5X5X5X5X5X5X5X5X5X5X5X5X5X5X5X",
"5X5X5X5X5X5X5X5X5X5X5X5X5X5X5X5X5X5X5X5X5X5X5X5X5X5X5X5X5X5X5X5X5X5X5X5X5X5X5X5X5X5X5X5X5X5X5X5X5X5X5X5X5X5X5X5X5X5X5X5X5X5X5X5X",
"5X5X5X5X5X5X5X5X5X5X5X5X5X5X5X5X5X5X5X5X5X5X5X5X5X5X5X5X5X5X5X5X5X5X5X5X5X5X5X5X5X5X5X5X5X5X5X5X5X5X5X5X5X5X5X5X5X5X5X5X5X5X5X5X",
"5X5X5X5X5X5X5X5X5X5X5X5X5X5X5X5X5X5X5X5X5X5X5X5X5X5X5X5X5X5X5X5X5X5X5X5X5X5X5X5X5X5X5X5X5X5X5X5X5X5X5X5X5X5X5X5X5X5X5X5X5X5X5X5X",
"5X5X5X5X5X5X5X5X5X5X5X5X5X5X5X5X5X5X5X5X5X5X5X5X5X5X5X5X5X5X5X5X5X5X5X5X5X5X5X5X5X5X5X5X5X5X5X5X5X5X5X5X5X5X5X5X5X5X5X5X5X5X5X5X",
"5X5X5X5X5X5X5X5X5X5X5X5X5X5X5X5X5X5X5X5X5X5X5X5X5X5X5X5X5X5X5X5X5X5X5X5X5X5X5X5X5X5X5X5X5X5X5X5X5X5X5X5X5X5X5X5X5X5X5X5X5X5X5X5X",
"5X5X5X5X5X5X5X5X5X5X5X5X5X5X5X5X5X5X5X5X5X5X5X5X5X5X5X5X5X5X5X5X5X5X5X5X5X5X5X5X5X5X5X5X5X5X5X5X5X5X5X5X5X5X5X5X5X5X5X5X5X5X5X5X",
"5X5X5X5X5X5X5X5X5X5X5X5X5X5X5X5X5X5X5X5X5X5X5X5X5X5X5X5X5X5X5X5X5X5X5X5X5X5X5X5X5X5X5X5X5X5X5X5X5X5X5X5X5X5X5X5X5X5X5X5X5X5X5X5X",
"5X5X5X5X5X5X5X5X5X5X5X5X5X5X5X5X5X5X5X5X5X5X5X5X5X5X5X5X5X5X5X5X5X5X5X5X5X5X5X5X5X5X5X5X5X5X5X5X5X5X5X5X5X5X5X5X5X5X5X5X5X5X5X5X",
"5X5X5X5X5X5X5X5X5X5X5X5X5X5X5X5X5X5X5X5X5X5X5X5X5X5X5X5X5X5X5X5X5X5X5X5X5X5X5X5X5X5X5X5X5X5X5X5X5X5X5X5X5X5X5X5X5X5X5X5X5X5X5X5X",
"5X5X5X5X5X5X5X5X5X5X5X5X5X5X5X5X5X5X5X5X5X5X5X5X5X5X5X5X5X5X5X5X5X5X5X5X5X5X5X5X5X5X5X5X5X5X5X5X5X5X5X5X5X5X5X5X5X5X5X5X5X5X5X5X",
"5X5X5X5X5X5X5X5X5X5X5X5X5X5X5X5X5X5X5X5X5X5X5X5X5X5X5X5X5X5X5X5X5X5X5X5X5X5X6X6X5X5X5X5X5X5X5X5X5X5X5X5X5X5X6X5X5X5X5X5X5X5X5X5X",
"5X5X5X5X5X5X5X5X5X5X5X5X5X5X5X5X5X5X5X5X5X5X5X5X5X5X5X5X5X5X5X5X5X5X5X7X7X5X5X=X5X5X5X5X`.5X5X5X5X5X5X5X5X5X%X3X5X5X5X5X5X5X5X5X",
"5X5X5X5X5X5X5X5X5X5X5X5X5X5X5X5X5X5X5X5X5X5X6X(.6X5X5X5X5X5X5X5X5X].5X6X8X4X5X2X3X8X5X5X6X5X5X5X5X5X5X5X5X5X5X5X5X5X5X5X5X5X5X5X",
"5X5X5X5X5X5X5X5X5X5X5X5X5X5X5X5X5X5X2X#X5X5X5X6X5X5X[.5X5X5X5X5X5X5X5X5X6X6X5Xf.d.i.4X5X6X6X5X5X5X5X5X5X5X5X5X5X5X5X5X5X5X5X5X5X",
"5X5X5X5X5X5X5X5X5X5X5X5X5X5X5X5X5X5X2X[.6X5X6X.Xm m m c c Y $X5X6X5X5X6X6X5X6X`.t._.4X5X6X].5X6X5X5X5X5X5X5X5X5X5X5X5X5X5X5X5X5X",
"5X5X5X5X5X5X5X5X5X5X5X5X5X5X5X5X5X5X5X5X5X5X9.! v v ! v ~ p B M.).6X6X).;X5X5X|.|.8X5X5X5X5X6XM.T I Y A.5X5X5X5X5X5X5X5X5X5X5X5X",
"5X5X5X5X5X5X5X5X5X5X5X5X5X5X5X5X5X5X5X5X5X%Xv v v v v v ! ! ~ c 3X5X6X{.#X5X=X=X6X5X5X5Xk.I Y B a ! a B I m.6X6X[.5X5X5X5X5X5X5X",
"5X5X5X5X5X5X5X5X5X5X5X5X5X5X5X5X5X5X5X5X5X9.v v c c v v v v v v <X5X5X5X5X5X5X5X5X5X5Xb.b v v 9 a ! a ~ ! B M.5X6X5X3X5X5X5X5X5X",
"5X5X5X5X5X5X5X5X5X5X5X5X5X5X5X5X5X5X5X5X3XB v v ~ y ! ! ! v v v z.5X:X8X5X5X5X5X5X6X5XW ! ! ! ! a ! ! ! 9 p z.5X5X6X).5X5X5X5X5X",
"5X5X5X5X5X5X5X5X2X5X5X5X5X5X5X*X5X5X6X5X<Xm v j y u u u u u u 9 }.5X6X5X5X3X{.6X5X{.6XW :.<.<.1.<.<.-.p 4 4 6 8.5X5X3X5X5X5X5X5X",
"5X5X5X5X5X5X5X5X5X5X5X5X5X5X).d.5X5X&X4X5XI a y 2.6.6.3.6.3.4.;.H 5X5X5X5X6X7X5X5X5X5XW >.6.6.6.6.6.:.p 4 4 = z 5X2X5X5X5X2X5X5X",
"5X5X5X5X5X5X5X5X5X5X5X5X5X2X*X|.6X5X5X5X2XV v i e w w 2.6.w w :.H 5X4X=X5X5X5X6X6X5X5XW <.#.*.6.$.&.;.p p 7 = z 5X5X-X1X5X(.5X5X",
"5X5X5X5X5X5X5X5X5X5X5X5X5X5X6X4X2X5X5X5X%Xv y 1.6.7.e 6.6.7.#.>.H 5X2X6X5X5X_.|._.5X5XW >.q $.6.r O.,.<.-.7 = z 5X-X*Xs.5X:X6X6X",
"U U U E U U U U Y Y Y oX5X5X5X6X4X5X5X5X%X7 ;.,.6.i o.d d ' d s n W W E E E ] A E E E b ' %.=.6.,.,.6.*.t 4 = z 2X;X'.p.5X5X5X6X",
".X.X.X X X X X XQ..XJ.M  X].2X5X2X2X5XZ.B 3 <.,.0 F.E.E.E.W.E.E.E.!.E.!.!.!.!.!.!.!.!.!.H.u *.6.4.6.4.#.% 4 = , E E A A c.5X2X#X",
"5X5X5X5X5X5X5X5X5X5XU.> S.5X2X1X5Xw.N c h t 1 1.  1X5X5X5X5X5X5X5X5X5X5X5X5X5X5X5X5X5X5XY.6 $.6.4.4.4.,.e - = $ 8 8 9 9 c E x.6X",
"5X5X5X5X5X5X5X5X5X5XU.> S.5X5XR.Z.m ! 9 8 7 + M   1X5X5X5X5X5X5X5X5X5X5X5X5X5X5X5X5X5X5XY.6 * q =.6.4.4.+.% = & y 8 9 7 7 h m c.",
"5X5X5X5X5X5X5X5X5X5XOXe.M Q.5X5Xv.! ! ! 3   < 5XM.C 1X5X5X5X5X5X5X5X5X5X5X5X5X5X5X5X5X6X@Xq.1 e =.6.6.*.* % = & h h h 9 9 h j T ",
"6X5X5X5X2X5X5X5X5X2X5XI., Z.5X5Xv.p y v 3   6X5X5X. ,X5X5X5X5X5X5X5X5X5X5X5X5X5X5X5X5X5X5XY.f * e e q ( M.F + + 1 h ! h a ! a T ",
"x x x l %X5X5X5X5X5X5XI.> Z.5X5Xv.9 c j 3 XX5X5X5X. ,X5X5X5X5X5X5XK D G D D XX5X5X5X5X5X5XY.c x l.l.m. X5XXXl.l.J 3 ! h ! ! ! T ",
"~ ~ ~ ~ x I.<X5X5X5X5XU.> Z.5X5X$X0.h 9   XX5X5X5Xo ,X5X5X5X5X5X8.v h h h h F D.%X5X5X5X5XY.f j.5X5X5X5X5X5X5X6XXXR 2 j ! ! b A.",
"^ ^ ^ ^ ] K.<X5X5X5X6X+Xq.C Q.5X5Xv.j   k 5X5X5X5Xj.H 2X5X5X5X5XM.A ^ ^ ) ) ] r.OX5X5X5X5XOXq.Y Q.5X5X5X5X5X5X5X5XoXR 3 a ! Z 5X",
"& & & h K.^.4X5X5X2X5X5XI.5 w.-X5Xb.1 H 6X5X6X5X5X5Xo 1X5X5X5X5X5XV ; & & 9 r.T.<X5X5X5X5X5XF.c l.5X5X5X5XQ.M.;X5X5XA.$ a ! T 6X",
"h c   h K.%X5X5X5X5X5X5XI.5 Z.4X6Xb.  1X5X5XQ.m.5X5Xo <X5X5X5X5X5XN 9 8 . 7 r.$X5X5X5X5X5X5XG.p l.5X5X5X5XE.} n.~.L x $ ! a V 6X",
"X.X.  9 K.%X5X5X5X5X5X5XI.5 Z.5X5XoXC < k oXC oX2X5Xo 1X5X5X5X5X5XN ..X.+ 7 r.@X5X5X5X5X5X5XT.p l.S.L K L J f , / @.e $ a B A.6X",
"X.X.. 9 K.Y.=X5X5X5X5X5XOXQ F Q.5X5X: 1.1.: o # # #   H 3X5X5X6X5XV ..X.+ 7 r.T.%X5X5X5X5X5X@XQ E _ O.O.O.+.r +.*.6.*.$ a Y 5X5X",
"X.X.. 9 K.L.%X5X5X5X5X5X5XY.5 m.5X5X@ 7.4.5.5.5.5.5.5.O <X5X6X6X5XN ..X.+ 7 r.L.$X6X5X5X5X5X5XT.f @.4.4.4.4.4.4.,.:.i 3 v Y 5X6X",
"X.X.. 9 K.L.T.^.^.^.^.^.G.P.5 m.5X5XL   O 2.5.5.5.5.5.X G././..X/.B ..X.+ 7 r.L.Y./././././..XP.8 @.=.+.O.O.@.@.' } j ! 9 Y 5X5X",
"[ X.. 9 { { { { { { { { { { W  X5X5X8.  <X@ # # # # .   | |  . . .~ ..X.+ 7 {  .|  . . . . .|  .' %.' M M M M N e.P.j ! ! Y 5X5X",
"X.X.. 9 ) _ _ _ ` ` ` ` ~ ~ 9.b.N.N.Z > N.M.N.N.M.b.5 = v v a ^ / ! ..X.+ 7 ^ ) ) ) ) ) ) ) ~ ~ i i } J.J.J.J.J.J.| j j ! V N.N.",
"X.X.. 9 C.D.D.D.D.D.D.D.B.b.b.x.x.x.c.x.x.x.c.x.x.c.x.x.x.x.x.n.n.m ..X.+ 7 n.n.V.V.V.V.V.V.b.v.c.9.9.x.x.z.z.9.W 9.z.W z.W z.9.",
"X.X.. 9 #X5X5X5X5X5X5X5X5X5X5X5X5X5X5X5X5X2X5X5X5X5X5X5X5X5X5X5X5XN [ X.+ 8 XX5X5X5X5X5X5X5X5X5X5X5X5X6X5X5X5X5X5X5X5X5X5X5X5X6X",
"8 8   = H 8.8.$X5X5X5X5X5X5X5X5X5X5X5X5X5X5X5X5X5X5X5X5X5XM.j.j.h.6 g v + 1 P l.l.#X5X5X5X5X5X5X5X5X5X5X5X5X5X5X5X5X5X5X5X5X5X5X",
"D G G G G D G oX5X5X5X5X5X5X5X5X5X5X5X5X5X5X5X5X5X5X5X5X5XS z z z z z z l l l l x Q.5X5X5X5X5X5X5X5X5X5X5X5X5X5X5X5X5X5X5X5X5X5X",
"5X5X5X5X5X5X5X5X5X5X5X5X5X5X5X5X5X5X5X5X5X5X5X5X5X5X5X5X5X5X5X5X5X5X5X5X5X5X5X5X5X5X5X5X2X5X5X5X5X5X5X5X5X5X5X5X5X5X5X5X5X5X5X5X",
"5X5X5X5X5X5X5X5X5X5X5X5X5X5X5X5X5X5X5X5X5X5X5X5X5X5X5X5X5X5X5X5X5X5X5X5X5X5X5X5X5X5X5X5X5X5X5X5X5X5X5X5X5X5X5X5X5X5X5X5X5X5X5X5X",
"5X5X5X5X5X5X5X5X5X5X5X5X5X5X5X5X5X5X5X5X5X5X5X5X5X5X5X5X5X5X5X5X2X5X5X5X5X5X5X5X5X5X5X5X5X5X5X5X5X5X5X5X5X5X5X5X5X5X5X2X5X5X5X5X",
"5X5X5X5X5X5X5X5X5X5X5X5X5X5X5X5X5X5X5X5X5X5X5X5X5X5X5X5X5X5X5X5X5X5X5X5X5X5X5X5X5X5X5X5X5X5X5X5X5X5X5X5X5X5X5X5X5X5X5X5X5X5X5X2X",
"5X5X5X5X5X5X5X5X5X5X6X5X5X5X2X5X5X5X5X5X5X5X5X5X5X5X5X5X5X5X5X5X5X5X5X5X5X5X5X5X5X5X5X5X5X5X5X5X5X5X5X5X5X5X5X5X5X5X5X5X5X5X5X5X",
"5X5X5X4X:X2X5X5X5X6X8X6X5X|.*X5X4X:X5X5X5X5X5X5X5X5X5X5X5X5X5X5X5X5X5X5X2X5X5X5X5X5X5X5X5X2X5X5X5X5X5X5X5X5X5X5X5X5X5X5X5X5X5X5X",
"5X5X5Xi.u.[.6X5X5X{.u.p.4Xp.g.6Xi.u.&X5X5X5X5X5X5X5X5X5X5X5X5X5X5X5X5X5X5X5X5X2X5X5X5X5X5X5X5X5X5X5X5X5X5X5X5X5X5X5X5X5X5X5X5X5X",
"5X5X5X5X4X5X5X5X5X5X4X6X5X&X;X5X6X4X5X5X5X5X5X5X5X5X5X5X5X5X5X5X5X5X5X5X5X5X5X5X5X5X5X5X5X5X5X5X5X5X5X5X5X5X5X5X5X5X5X5X5X5X5X2X",
"6X5X5X5X5X5X5X5X5X5X|.5X5X6X6X5X4X*X5X5X6X5X5X5X5X5X5X5X5X5X5X5X5X5X5X5X5X5X5X5X5X5X5X5X5X5X5X5X5X5X5X2X5X5X5X5X5X2X5X5X5X5X5X2X",
"a.t.4X5X5X5X5X5X5X6Xu.*X8Xt.a.4X'.t.5Xg.u.{.5X5X5X5X5X5X5X5X5X5X5X2X5X5X5X5X5X5X5X5X5X5X5X5X5X5X5X5X5X5X5X5X5X5X5X5X5X5X5X5X5X5X",
";X*X5X5X5X5X5X5X5X5Xf.3X5X*X;X5X;X_.6X6X*X6X5X5X5X5X5X5X5X5X5X5X5X5X5X5X5X5X5X5X5X5X5X5X5X5X5X5X2X5X5X5X5X5X5X5X5X5X5X5X5X5X5X5X",
"6X5X5X5X5X5X5X5X5X5X6X5X5X6X6X5X5X5X5X5X:X5X5X5X2X5X5X5X5X5X6X5X5X5X5X5X5X5X5X5X5X5X5X5X5X5X5X5X5X5X5X5X5X5X5X5X5X5X5X5X5X5X5X5X",
"g.s.5X5X5X5X5X5X6X:Xd.`.6Xg._.5X5X5X5X8Xy.6X5X;Xi.2X*Xd.$X3Xp.>X5X5X5X5X5X5X5X5X5X5X2X5X5X5X5X5X5X5X5X5X5X2X5X5X5X5X5X5X5X5X5X5X",
"'.'.5X5X5X5X5X5X5X8X_.*X5Xg.{.5X5X5X5X8Xi.6X5X8Xf.6X4X`.3X5Xf.8X5X5X5X5X5X5X5X5X5X5X5X5X5X5X2X5X5X5X5X5X5X5X5X5X5X5X5X5X5X5X5X2X",
"5X5X5X5X5X5X5X5X5X5X5X5X5X5X5X5X6X6X5X6X5X5X5X5X5X6X6X6X5X5X5X5X5X5X5X5X5X5X5X5X5X5X5X5X5X5X5X5X5X5X5X5X5X5X5X5X5X5X5X5X5X5X5X5X",
"5X5X5X5X5X5X5X5X5X5X5X5X5X5X5X5X*Xg.5X8X'.4X6X;X'.6X6Xi.2X5X5X5X5X5X5X5X5X5X5X5X5X5X5X5X5X5X5X5X2X5X5X5X5X5X5X5X5X5X5X5X5X5X5X5X"
};
