/* XPM */
static char *ea30fd163ef84954e890e5115de836dbiOthhZ2oqvClg3cK[] = {
/* columns rows colors chars-per-pixel */
"64 64 234 2 ",
"   c #150C04",
".  c #1A0E06",
"X  c #180F08",
"o  c #1D1107",
"O  c #1E1208",
"+  c #211409",
"@  c #27190C",
"#  c #2D1E11",
"$  c #311F11",
"%  c #31210F",
"&  c #2E2114",
"*  c #2E2318",
"=  c #332314",
"-  c #3A2916",
";  c #332619",
":  c #36291A",
">  c #3A2B1A",
",  c #222222",
"<  c #2B2B2A",
"1  c #362D24",
"2  c #393429",
"3  c #3C2D3C",
"4  c #3A3935",
"5  c #440606",
"6  c #5B0A09",
"7  c #481111",
"8  c #5B1816",
"9  c #6D0D0D",
"0  c #700101",
"q  c #730D0D",
"w  c #641715",
"e  c #751111",
"r  c #791414",
"t  c #7B1D1D",
"y  c #402D1A",
"u  c #43321E",
"i  c #492725",
"p  c #562B2B",
"a  c #443422",
"s  c #4C3A25",
"d  c #483B29",
"f  c #513E29",
"g  c #423C33",
"h  c #573636",
"j  c #7A2929",
"k  c #6A322C",
"l  c #753333",
"z  c #55432D",
"x  c #59472E",
"c  c #454334",
"v  c #494537",
"b  c #4C4A3C",
"n  c #574A36",
"m  c #5C4A33",
"M  c #614E38",
"N  c #774D32",
"B  c #64523C",
"V  c #6A573F",
"C  c #420042",
"Z  c #4A004A",
"A  c #4F064F",
"S  c #480E48",
"D  c #510051",
"F  c #530A54",
"G  c #580259",
"H  c #59015A",
"J  c #531453",
"K  c #541954",
"L  c #5A145A",
"P  c #5A1C5A",
"I  c #482748",
"U  c #463446",
"Y  c #4B3C4B",
"T  c #572657",
"R  c #563756",
"E  c #5E335E",
"W  c #6B364C",
"Q  c #5F0062",
"!  c #610065",
"~  c #630E66",
"^  c #650069",
"/  c #6A026D",
"(  c #68166A",
")  c #6D0170",
"_  c #780079",
"`  c #642865",
"'  c #633363",
"]  c #633B63",
"[  c #782E7A",
"{  c #4E4C41",
"}  c #484648",
"|  c #544D43",
" . c #575345",
".. c #594759",
"X. c #555455",
"o. c #5C5558",
"O. c #5C5C5C",
"+. c #734A48",
"@. c #6C5A43",
"#. c #685846",
"$. c #735749",
"%. c #7A5755",
"&. c #6D614E",
"*. c #71614E",
"=. c #6B6656",
"-. c #746552",
";. c #776957",
":. c #7B6D5A",
">. c #7B715E",
",. c #694769",
"<. c #675467",
"1. c #764876",
"2. c #795B79",
"3. c #646464",
"4. c #6C636B",
"5. c #6B6A6B",
"6. c #796969",
"7. c #7C7363",
"8. c #7C7769",
"9. c #766C76",
"0. c #757474",
"q. c #7D7876",
"w. c #7C7C7C",
"e. c #850D0D",
"r. c #950F0F",
"t. c #881515",
"y. c #981919",
"u. c #AD0909",
"i. c #9B2121",
"p. c #843A3A",
"a. c #AB2323",
"s. c #F00000",
"d. c #E42D2D",
"f. c #8A4F1A",
"g. c #925015",
"h. c #A95409",
"j. c #B45400",
"k. c #B95700",
"l. c #A85612",
"z. c #88572C",
"x. c #AD692F",
"c. c #DB6B06",
"v. c #8B5151",
"b. c #9A724F",
"n. c #80725C",
"m. c #B47C4B",
"M. c #896A68",
"N. c #9D6E6E",
"B. c #817564",
"V. c #847966",
"C. c #837B6C",
"Z. c #997A60",
"A. c #837D71",
"S. c #827D7B",
"D. c #9A7979",
"F. c #AA6E6E",
"G. c #B86E6E",
"H. c #AA7474",
"J. c #B47474",
"K. c #BB7373",
"L. c #C27373",
"P. c #88816E",
"I. c #858173",
"U. c #8A8374",
"Y. c #878479",
"T. c #8A867A",
"R. c #8D8A7C",
"E. c #968F77",
"W. c #928D7D",
"Q. c #B3967C",
"!. c #CD8D53",
"~. c #D69F6D",
"^. c #880088",
"/. c #861286",
"(. c #8F0091",
"). c #940095",
"_. c #866886",
"`. c #887988",
"'. c #838383",
"]. c #8E8B82",
"[. c #8A8689",
"{. c #8C8C8C",
"}. c #928E82",
"|. c #958F8E",
" X c #959285",
".X c #9A9585",
"XX c #9E9A86",
"oX c #96948A",
"OX c #99968B",
"+X c #9C9A8D",
"@X c #978C97",
"#X c #959595",
"$X c #989794",
"%X c #9C9C92",
"&X c #9A9A9A",
"*X c #A19E8D",
"=X c #A19E93",
"-X c #A59B99",
";X c #9FA097",
":X c #AEA08D",
">X c #A3A295",
",X c #A9A797",
"<X c #A5A49B",
"1X c #A9A79B",
"2X c #ABAA9D",
"3X c #A4A4A3",
"4X c #A9A6A5",
"5X c #A7A8A2",
"6X c #ABACA3",
"7X c #ACACAB",
"8X c #B0AFA3",
"9X c #B1AEAE",
"0X c #AFB0A6",
"qX c #AFB1AA",
"wX c #B2B2A5",
"eX c #B3B3AB",
"rX c #B9B7A9",
"tX c #B7B8AE",
"yX c #B9BAAE",
"uX c #B2ACB2",
"iX c #B4B4B4",
"pX c #B7B8B3",
"aX c #BBBCB4",
"sX c #B7B8B9",
"dX c #BBBBBB",
"fX c #C0BFB9",
"gX c #BFC1B7",
"hX c #BFC1B8",
"jX c #C2C3B8",
"kX c #C3C4BB",
"lX c #C2C2C2",
"zX c #C9CBC6",
"xX c #CDCCCC",
"cX c #D0D0D0",
/* pixels */
"R.8.I.P.I.I.8.C.C.T.>.P.U.W.C.7.8.T.Y.].T.T.W.W.].Y.R. XR.A.T.T.8.T.I.T.I.W.T.A.T.A.T.U.W.}..XA.5.Y.].].}.].T.].R.Y.U. X}.I.A. X",
"W..XP.R..X*X+X>XXX.XXX.X+X*XR.rXU.+X%X.X X}..X X X X X.XT.=XC.W..X}.2XW. X*X>X=X%X*X>X>X=X>X=XC.rXoX+X=X+X.X X XR. X XoX X=.2XW.",
"U.=.W..X.X.XXX.XE.E. X].T.].R.=.T..XOXOX+X X.X X}. X.XOX].=.U.T.R.R.;.+X.X.X*X.X.Xq.+X XW. XW.I.7..X.XOXXX.X}. X X X.XoX XU.=.}.",
"c c b c v n c n c v  .| { { v n | b {  .c v g 4 2 1 4 b | v c g { b v { b c b v b c 2 | b | v c b | b { b v g 2 2 1 < c c { c c ",
"+X.X+X+X+X+X+X*XW.>XwXwX2X2X2X>X*X*X>X1X1X,X>X>X6X6X<XtX2X,X2X=X+X%X+X>X+X+X>X+X=X8.R. X.XOXoX X XR.%X%XW. X}.R. X}.oX%X>X%XOX>X",
">X>X,X,X>X,X,X>X>X2XrXrXwXtXrXrXwXrXaXyXaXrXwXrXgXrXaXaXaXwX6XwX6XwX2XwX1X1X2X2XwX2X>X%X>X+X%X.X=XOX%XoX.X%XoX X+X+X%X>X1X0X6X2X",
">X.X+X>X>X>X>X,XwXwXrX2X,XrXyX6XyXaXaXaXkXhXkXaXaXtXkXkXaX0XtXrXtXkXaXgXaXrXwXeXwX0X2X1X>X+XOX%X>X>X%X+X;X>XoX%X>X%X>X6XwX6XeX8X",
"6X>X,X1X,X,XwX2X2X2XrXrXtXeXtX6XrXaXyXgXkXkXkXyXgXyXjXjXaXtXaXaXyXlXkXkXaXfXaXaXaXeXrX6X>X;X+X>X%XoX>X<X%X;X%X%X3X<X6XqX0XrXtXeX",
"wX,X8XrXrXrXrXyXrXrXrXjXzXkXaXrXyXrXaXaXaXkXyXwXyXaXrXaXaXaXaXgXaXlXgXkXkXkXjXaXaXtXtX2XqXwX>X5X>X<X1X$X%X[.{.$X$X%X%X7X3X%X>X6X",
"$XwXrXwXwX8XrXaXJ.K.F.F.L.H.J.N.w.{.#XL.H.J.F.G.F.J.H.H.G.F.G.H.H.J.G.F.N.'.{.J.F.G.G.K.J.K.N.G.N.K.J.H.J.F.N.K.J.<XoX%X<X%X%X%X",
"%X+X*X2X>X,X2X1X0.'.'.'.'.'.'.'.'.'.'.'.'.'.'.'.'.'.'.'.'.'.'.'.'.'.'.'.'.'.'.'.'.'.'.'.'.'.'.'.'.'.'.'.'.'.'.w.0.<X%X%X>X%XoX;X",
"OXOX+X=X>X.X+X=Xw.w.w.$X&X&X&X&X$X$X&X&X&X&X$X$X$X$X&X&X$X$X$X&X&X&X$X$X$X&X&X&X$X$X$X&X&X&X&X#X$X&X$X&X&X$Xw.0.w.%X+X%X%X%X$X%X",
"%X,X,X2X=X.X+X<X'.d.u.5 7 h 0 0 0 0 0 0 0 0 0 0 0 0 0 0 0 0 0 0 0 0 0 0 0 0 0 0 0 0 0 0 0 0 0 0 u.u.s.v.7 5 5 [.3X%X%XoXoXoX%X%X",
"%X6X>XqX;X%X,X1X{.r.dX&X5.p $XdXzXdXdXiXiXiXiXiXiXiXiXiXiXiXiXiXiXiXiXiXiXiXiXiXiXiXiXiXiXiXuXiXlXdX4Xp 0.0.-Xd.0.5X6X<X<X;X%X=X",
"6X2X1X6X6XqX6X,X4X7 &XdX3X'.{.3X3Xw.2.3XlXdXdXdXiXiXiXiXiXiXiXiXiXiXiXiXiXiXiXiXiXiXiXdXiX{./ ..iX7X4X3X'.iXiXe.w.iXiX7X3X5X7X7X",
"wX2XwXwXpXeXdX6XdXh '.&XdX4X'.'.#XT H ' `.iXzXlXdXdXdXiXiX1.{.9.1.1.1.m.!.!.iXiXiXdXdX&X_.` H D &X&X&X&XdXzX5.h #XpXaXpX6XpX7X6X",
"6X6X8XtXpXwXpXwXlXp w.&X4XdX4Xw.5.Y Z D F ( {.7XiXiXiXiXiXD J F D <.D j.k.c.~.iXiX#X0.( F D D Y &X&X&XiXlX7X0.i &XdXpXeX7XiX6X6X",
"6X,X6X0XpXpXqX6XlXj #X{.&X7X'.L 5.3.Y Z Z D G G L '.3XiXiX5.D D D D D j.{.iX3X0.~ ! H H D D Y 5.5.J '.dX7X{.w.8 7X6X4X5XiXeX7XpX",
"6X1X6X,XwXpXeXtXlXa.4X&X{.'.` ! } 5.3.U Z Z Z ^.G H ] '.iXiXD D D D D {.iX'.' ! H ^.D D Z U 5.X./ ! ` #X&Xw.{.t 7XpXeX7XdXdXaXdX",
"pX=X6X2XwX6XeXwXiXy.iX&X{.9.G / ! H } o.} S Z ^ Z G H G uXiXD D D D D iXuXG Q H D ^ Z S 4 o.} D ! ! ) _.{.w.{.t 7XiXdXiX7XiXeXpX",
"qXeXtXwX0XtXqX6XiXe.lX7X&X9.Z G / ^ ! F Y 3 C C Z Z L 4.iX&XD D D D D &XiX4.J Z Z Z Z 3 U S D H ^ ) / _.w.{.|.r 7XiXiXiXiXaXpXpX",
"7XaX6X2X6X6X6X6XiXq cXdX7X'.Y Z H ^ ^ ^ H H C C C J ,.[.iXE D D D D D E iX'.,.J C C C Z Z D H ^ ) / ,.w.'.{.3Xq iXwX6XeXiXiXeXpX",
"6XpX6X,X2X6X6X0XiXr cXxX9.' O...Y H ! ^ ! _ Z C C Z Z J uX@XD D D D D @XuXS Z Z Z Z H ! D H ! ) ..9.O.} 5.$X4Xr iX3X6XeX7XpXiX7X",
"6X2X2X%X,X7XqXwXiXt iXcXG Z I X.X.X.Y ! ^ H ^.Z Z Z Z Z w.5.D D D D D 5.w.Z Z Z Z Z / G H Q ..[.w.O.I C Z $X4Xt iXiX6XiX7XiX7X7X",
"6XwX6X>XwX0X6XaXiXt 9XxXQ H Z Z C 4 } } O.L H H G Z Z Z D D D D D D D D Z Z Z Z Z D D L O.w.w.X.D Z C C Z 4X3Xt iX1XsXiX7XeXeX6X",
"7X2X,X,X6X6XwX0XlXt.fXiXQ H D Z C C C Z D (.H H G Z Z D D D D D D D D D Z Z Z Z D H H (.H G D Z Z C C C H 4X4Xt iX<X7X7X4X7X7X6X",
"7X,X6X>X6X,X>X0XxXy.zXiXP H G Z Z C C C Z _ H H G D D D D K J J K J J K D Z Z D H H H (.G G Z Z Z C C Z P #X4Xe.iX7X6X6X6X6XwX7X",
"pX,X>X>X6X,X=X,XdXe.dX&X'.' F D Z C Z Z Z Q ! G D D D D D O.` [ [ [ ` O.Z D H H G H / / G Z Z Z C C S R '.#X7Xe.iXeX6XwXeXpXiX7X",
"aXwXwXrXwX1X1X6XiXr iX` ` X.<.<.......Y 3 S G G _ H D D D 0.(._ ) _ (.0.D G G H _ G ! F ..Y U 3 U Y X.X.` [ dXy.dX6XpXaXdXsXiXaX",
"6X6X,X,X6X>X>X2X4Xt 4XD D H H G D Z Z Z Z Z Z D H _ H D D X.) ) ) ) ) X.D D ! _ H G H G Z Z Z S C Z Z H Q ) xXi.cX7XqXiXiXiX7XiX",
"6X6X2X2X6X>X,X0X4Xt 3XD D D H H D D Z Z Z Z D D D D D D D w.).) / ) ).w.D G G D G H G Z Z Z Z Z Z Z D H Q ! dXi.lXlXiXiXiX6X6X7X",
",X1X,X6X+X>X;X<X&X8 #XD D G G D G D D D D D D D D D D D D X.) /.T (.) X.D D G G G G D Z Z Z Z Z Z Z D H / Q dXy.lX7XeX7X3X7X6X3X",
"wX>X,X+X1X=X>X,X4Xw 4XK D D D H D D D F F R Z D D T T D D 0.O.` T ( O.0.D H T T D D Z R A S Z Z Z Z D H Q K iXr iXeXeXeX7X7X%X6X",
"wX>X,X%X%X%X1X1X7X9 7Xw.E D D D I ] E T K D Z Z ] T D D D T ] 5.5.5.] T D D G T ] D Z Z K T E E I D D H E w.iXq iXwX6XqXpX4X%X6X",
"eX1X%X1X+X+X%X%XiXr iX7X&X`.`.`.3.P P D D D D <.P D D D D D D J L J D D D D D D P <.Z Z Z Z K P 3.`.`.`.;X4X4Xe 4X6XeX6XiXeX6X6X",
"iX7X0XeX2X X%X%XiXt iXiX&X{.E D F D D D D D 4.F Z D D D D D D D D D D D D D D D D F 4.Z Z Z Z D G G ' {.&X&X#Xw &X6X2XwXqX3X7X7X",
"7X6X1X5X,X].oXoXiXt 9XiXD D D D D D D D D <.D D Z P E <.F D D D D D D D D <.E T D D D <.Z Z Z H H H H D D {.{.8 {.6X6X6X6X2X6X3X",
"6X;X=X<X,X+X%X%XiXt iXiXD D D D D D D D ] J D D D 0.'.K D D D D D D D D D K '.0.F D D J ] Z D D H H H D D $X$Xw $X5X6X1X1X>X<X1X",
">X=X%X>XOX%X%X$XiXt.iXiX0.D D D D D D E T D D D ` 2.D D D D D D D D D D D D D 2.` D D D T E D G H G H D 0.&X&X9 &X<X=X=X>X.X.X=X",
"=X6X5X1X<X>X;X5XiXe.iXiX3XT D D D D E E D D D D 1.D D D D D D D Z D D D D D D D 1.D D D D E E D D D H T 3X7X7X9 7X+X%XOXOX XOX%X",
"OXOX+XwX2X=X%X6XdXt.dXdXdX#XT D D <.P D D D D _.D D D D D D D D D D D D D D D D D _.D D D D P <.D D T #XiXiXiXr iXoX=XoX%X=X<X%X",
"%X%X%X6X,X1X1X6XcXa.xXxXxXiX3X@X|.$XD D D D [.iX(.D D D D D 4.D D D 4.D D D D D (.iX[.D D D D #X|.@X3XiXiXiXiXt iXoXoX}.OX+X%XOX",
"%X>X=X,X,X+X%X>XlXi.dXlXdXiXiXiXpX&X{.D D `.iXiX7X<.D D D D D D D D D D D D D <.7XiXiX`.D D {.&XiXiXiXiXiXlXdXi.lX%X+X].oX+XOX+X",
">X%X>X,X.X.XoX%XiXy.iXiXiXiXiXiXS.j.h.{.iXiXeXq.h.D D D D F D D D D D F D D D D h.q.eXiXiX{.h.j.S.pXdXlXlXlXdXy.lXoXoXoX X%X%X%X",
"1X,X2X,X=X.X X.XiXt.iXiXiXiXiXiXx.l.l.h.j.j.j.h.h.N W P w.@XD D D D D @Xw.P W N h.h.j.j.j.h.l.l.x.dXdXlXxXxXxXy.xX+XoXoX}..X%X%X",
"1X;X1X>X+X X X XiXe.iXiXiXiXiXiX3Xb.z.g.j.j.j.g.g.Z.iXiX_.D D D D D D D _.iXiXZ.g.g.j.j.j.g.z.b.3XiXiXdXdXlXlXr.lXoX+X%X%XoX.X%X",
">X%X=X>X+X>X+X+X7Xe 7X7X4X7XiXiXx.f.f.b.j.f.Q.Z.f.x.&X1.D D D D D D D D D 1.&Xx.f.Z.Q.f.j.b.f.f.x.iXiXiXiXdXsXr iX.X%X%X=XOX XoX",
"%X+X+X+X=X>X%X.X4Xt 4X4X4X4X4XiXN q.{.Q.g.=XiX7X4X6.T D D D D D D D D D D D T 6.4X7XiX=Xg.Q.{.q.N iXiXiXiXiXiXt iX%X%XOX XoX}..X",
">X>X%XoX=X+X+X+XiXt 9XiXiXiXiXiXiXiXiXQ.g.-XiXw.X.D D D Z D D D D D D D D D D D X.w.iX-Xg.Q.iXiXiXiXiXiXiXiX9Xt iXoXoX X XoX}.OX",
"=X>X>X>X=X+X=XoXiXt #XiXiXiXiXiXiXiXiX4Xx.:XF D D D D D D F 9.D D D 9.F D D D D D D F :Xx.4XiXiXiXiXiXiXiXiX#Xt iXoXOX}.%X%XoXOX",
"%X=X%X+XOXoXoXoXiXj 6.4X7XiXiXiXiXiXiXiXiXiX{.3.L F D F 5.4XD D D D D 4X5.F D F L 3.{.iXiXiXiXiXiXiXiXiX7X4X6.j iX].}.}.oXR.}. X",
" X+X.XoX X.XW. X7X$Xl +.v.D.4XiXiXiXiXiXiXiXiXiX#X9.1.`.iX,.D D D D D ,.iX`.1.9.#XiXiXiXiXiXiXiXiXiX4XD.v.+.l {.7X].R.R.R.T.A.T.",
"}.}.}..X X X}.I.6.7X3XD.M.+.j p.p.{.3XiXiXiXiXiXiXiXiXiXiX..D D D D D ..iXiXiXiXiXiXiXiXiXiX3X|.p.p.j v.M.D.3X4X6.T.R.R.T.T.C.U.",
"}. XR.].R.}.R.T.8 o.'.iXiXiX9X|.6.e r l {.7XiXiXiXiXiXiXiX4X<.D D D <.4XiXiXiXiXiXiXiX7X{.l r e 6.|.9XiXiXiX'.o.6 A.U.U.U.U.U.U.",
"U.T.I.T.8.C.7.A.%.N w O.'.iXiXiXiXiX$X%.0 0 q.&XiXiXiXiXiXiX7X..D ..7XiXiXiXiXiXiX$Xq.0 0 %.$XiXiXiXiX{.O.6 8 w k B.C.I.T.C.C.C.",
"C.C.8.C.8.C.7.8.C.C.;.$.l 8 h 0.9XiXiXiX4X'.q 0 q '.4XiXiXiXiX&X3.&XiXiXiXiX4X'.q 0 q '.4XiXiXiX9X0.h 6 w k $.:.n.7.V.V.I.7.8.C.",
"P.C.7.B.>.B.7.7.B.C.7.7.C.;.$.k 6 | 6.4X7X7XiX&XS.e q q 6.D.-X7XiX7X-XD.6.q q r S.&XiX7X7X4X0.} 6 w w +.;.:.:.V.V.n.B.V.7.C.;.;.",
"-.V.B.B.:.:.>.>.B.7.:.B.B.V.V.B.N 8 6 5 i X.w.{.&XiX4X#Xv.p.l %.M.%.l p.v.#X4X3X{.M.M.#.i g  . .$.;.:.n.:.:.;.B.n.>.*.;.:.;.&.-.",
"#.#.:.-.&.-.-.*.;.-.-.#.*.-.-.;.;.$.#.d 1 , , 4 } X.3.{.iX4X3XD.D.D.3X4XiX{.3.} g i n #.#.*.-.;.#.#.@.@.B #.#.@.B m m B @.@.#. .",
"B @.@.@.@.B B B V B @.B B *.$.n #.*.*.#. .4 < < < < , < 4 4 3.{.iX{.3.} 4 2 2 c #.#.@.@.@.V @.@.B M m V B m m x a m x m m x M @.",
"B m M m m z z z z z x z x x x z z z f f s d g 4 4 < , , , , , , , 1 2 2 a a a s s a s s m f f M f f s s u a a u y y y u u > u z ",
"u s a a u u u u u s u u s u > a u u a u u ; = ; > > > > u s s a u u u > > > - - - > ; > - - - u - = & = ; - = = ; = $ % = # = - ",
"; > : & ; & * * * ; ; ; : ; & > 1 1 1 1 1 : * ; * * ; : : = > > > > > > = : ; ; ; > : = > = # # # # # & # @ @ # # @ @ # @ & ; > ",
"+ + O o o O . o o O o o o o o o O . . o O O   . .     . o O + + o + + +   . o o . O o o . . . + . o . X . . . . o . .           "
};
