/* XPM */
static char *PAPER_1F1699594220[] = {
/* columns rows colors chars-per-pixel */
"64 64 45 1 ",
"  c #383D3A",
". c #3D413D",
"X c #40443C",
"o c #4A4638",
"O c #504C3C",
"+ c #55513F",
"@ c #5B513F",
"# c #444541",
"$ c #5A4C44",
"% c #585240",
"& c #5F5643",
"* c #5C5544",
"= c #605845",
"- c #625249",
"; c #62534A",
": c #605A49",
"> c #635D49",
", c #6B5F49",
"< c #69624E",
"1 c #70634E",
"2 c #6E6450",
"3 c #706651",
"4 c #766952",
"5 c #736954",
"6 c #766E57",
"7 c #786C55",
"8 c #786F5A",
"9 c #7E7159",
"0 c #7C725A",
"q c #84755A",
"w c #83775E",
"e c #827860",
"r c #847960",
"t c #837C64",
"y c #887A60",
"u c #887E65",
"i c #8D8166",
"p c #8D8368",
"a c #8D856C",
"s c #93937D",
"d c #94947D",
"f c #979882",
"g c #9F9F8B",
"h c #9E9F8C",
"j c #9FA08D",
/* pixels */
"aqiyeyayiiiyeyiyeyiyieiy8uiyiye1 ...X. ......tiyeyiii0ii0uiyiyey",
"8qi0iyi8iei0iye0i58yiieyiyiyiy83 ..#... .#.#0fffw50yiyeiiriyiy8u",
"i7i0ayiyeieuiyiyi0iuiei0a0iyi0e1.X.# ...#.#tffffsfiui0i0a0iyi0ey",
"iqe5iyeuieiyiyiyiyiyeie5e0i5ayi1..# ..# .#.tjfjjfsffeye5e0i5ayiy",
"iqiyiyeyiyayi0iyi0i5iiiyiuiyeya1......#...tfggggjfjsfwiyiuiyeyay",
"iqiue0iyi0iyiyiueyiyieayeyiyi0i1... X#...#ffggggfjffffayeyiyi0iy",
"iq85eyiyeyeyiyeyi0iyiie5iyiyeye*..  #...#tffggggjgfsfff4iyiyeye5",
"aqi0i0a0i0iya0i0iyi5ieiyiyi0iyi1 ..#.X #.fsggggjgfjdfffdiyi0iyiy",
"iqeyeyiy8yi0ey8yiyiyeeeyiue5eyi1..X.#...tfjjggfsgfffffryiue5eyiy",
"iyi0iyi0iyi0e0iu8yi0aeiyiyi0iyi*...X...Xffgjggfjfsff=O4wiyi0iyi5",
"8yeueyiy8yiyeyiyiyeyeeiy8ye0iue1 .# X..-ffggfffffff@%O&1:ye0iuey",
"i0a0iyiyayi0a08yi5i0iiiyi0i0iy8,.# #...afgggjjffff=O=%&14>40iy8y",
"eyiyiyiqiye0e0iyiyi0iyeui0iyiyi,#......ffggfjfsff@&O=,<34>iyiyiy",
"iyayiy8qi080eya0iyiyiyiyiyiyiyi=.. ...-fgggjffdf&@&@4,41iyiyiii0",
"i08yiyaqeyayiqi0i0iyi5iyi5iyi0e1.# ...tfggjdsjfO&O&14%4yi5iyieey",
"iyiye0i7iyiyiqiyeyiuiyeyi0a0iya1....#Xffggffff&@+@414qeyi0a0iiay",
"ayiuiyiqiy8yiqi5i0i5i0a0iyeyeye1 .. .-fgggffj==o&>4&i7a0iyeyeiey",
"iyei8yiqiyayiqeyiuiyeyiyi0eyiyi1..#. wfggjfjw@O@43ireqiyi0eyiyiy",
"i5ia8yiq80iyi7iui0a0iyeyiye0eyi1. .  ffggdgf=O=340a0iqeyiye0eyiy",
"eyeia0ireyiyeqiyiye0eyiy8yi0iui1#.#. fgggjf@+@4yiye0eqiy8yi0iuiy",
"8yeiiyi7eyi0iqeye0i0i0iyi5eyi5i> .X.-fsgjfpO=1wye0i0i7iyi5eyi5i0",
"iyiaiyeqeyeyiqiyeyeuiyiyi08ueyi1... wfggff+@4yireyeuiyiyi08ueyiy",
"8yey80i7e0iyaqiui5iyi0iuiyiye0i1 .#.ffgffq=16yiui5iyi0iuiyiye0iy",
"iyiyeye7ayi0i2e0iyiyiyiyeyi0iyi>....sggff@=>i5r0iyiyiyiieyi0iyi0",
"iyi0eui7eyiyiqiyeyiuiiiieyeyeue1...-fgfgw@4yiyiyeyiuiyiieyeyeuey",
"i0iyeyiqi0iyi7iyiieyieie80i0e081.#.0fghf&Oiwi0iyiyeyi0ie80i0e08y",
"iui0iyi7iyi0iyiyiya0iieie0eueyi1. .dfffp=1i0iyiyiya0iyeie0eueyiy",
"iy8ueyiqayi5iyeuiyiyiu8ei0i0iyi>.. fsff=6yi5iyruiyiyiu8ei0i0iyi0",
"iyiyi0i7iya0i0iyiyiyiyaiiy8yiui1.. fff&<iya0i0iyiyiyiyaiiy8yiuiy",
"iyayeyeqi0eyeii0ayiye0i0i0iyeyey..-fdf@ui0eyeyi0ayiye0iei0iyeyey",
"i0iqiuiqiyi0iiiyiyeui0iy80iyiyi1.X0ff%4iiyi0iyiyiyeui0iy80iyiyiy",
"iyeqeyiqiy8yiai2ieiyiyeyayiyiyey..fff@iiiy8yiui5i0iyiyeyayiyiyei",
"ayiqeyaquyuryupqyiuyp0uy8uiyuyy3 .ff%qauiyiqryiyerpup0uy8upyiyyu",
"8yi8iyi2iyp0ipr4u88yuyryiyiyuy8u .ff4qi5i0i4pye0i48ppyyyuyuyiy8a",
"i0i4ayiqyuyuiiiqp0puiqp0aqpyiqry.$f7aqiyeyeriyiyuqiau0u0a0uyuqyy",
"iye2iyerpriyiiuqiyuyyyr4y8u5ayuy.qf<iqrui0iqiyiyiyiyeyy5rqp5ayuy",
"iyiquyequiayiyuqi0u4iyiyuuiyyyay#siqiyeyiyaqi0iyi0i4pypyiupyryay",
"iyiry8iqiriyiipyyypyu0ayyriyp0uy#sier0iyi0iqiyiuyypyu0ayyyuyp0uy",
"iy83yypqypyyiyrqp0uypye4iyiyyyr4#s05eyiyeyeyiyeyu0uypyy4uypyeyr4",
"ayi4p0a4uruya0p4uyp4u0pyiyi0uypq#ri0i0a0i0iya0i0pyi4uquypyuquypy",
"iyrqeyuq8ii0yr8qiypuy0eyiuy5eyiq;yryrypy8yiqey8ypypye0yyiuy5eypy",
"iqp4pyi7iii0y0pr8yuya0uypyuquyu3;wu0uyuquip8e8iu8yu0aquyiyi0uyu5",
"8qrrryiy8iuyeruqiyypy0py8yy0purq;yruryiy8ipyyypyiyrye0iy8ye0iury",
"i7a0iyiyaii0a08qi4uruyiyu0u0uy8q;0a0iyiyaiu0a08yp4uqurpyiqu0iy8y",
"yqiyiyiypiy0eqpqiyuypyruiquypypq4ypyuyiyiie0e0uyuyuquyyuuqpyiqiy",
"uqayiy8yuy80eya7iyiiuyiqpypyuyp4;yaypy8yuy8qyra0pyuypyuyiyiyiquq",
"p48yiyayriayuyp4i0iiu5iqi4pyiqey400yiyayryayuyuquqpyp4uyi4uyp4yr",
"pqiry0i0iiuypyuyyyiapyyqu0a0uyay4uirr0i0iyiypyiyyyiuuyyyp0a0pqay",
"aqiuiyiyii8yiyi4i0i8i4a4pyeyyryy0piuiyiyuy8yuyp4uqu5p0a0pyeryqey",
"iqyy8yiyiiayiyyriuiirqpypqeyuyuy5uyy8yiyiyaypyyypuuyryuyi0yyuqpy",
"u2uu8yiy8eiyp0uui0aepqeyiye8yyuy08uu8ypy8qpyuqiuu0aquyyyiyy0yquy",
"eqyya0iueiiyeypyuyeeyyuy8yu0iupy4ueyaquueyuyeyiypye0yyuy8yu0uyiy",
"8qeyiyi0ypi0uyyye0p0i0iyi4eyu4uq0iyruyi0eyuqpyyyy0i0i0iyp4eyp2i0",
"pqiuiyeyeuyyiyuyeyeuiyiip08ueyuy0puupryyeyyruyuyeyyuiyiyu08ueqiy",
"8qey80i0eeiyaypui4iyi0iaiyuye0uyqury80u0e0uyariuu5uyi0iupyiyr4iy",
"iqiyeye0aui0u5y0iyiyiyiiyrpqpypq0ypyyyr0ayp0p4e0pyiyiyiyyyi0pqi0",
"pqi0eui0yuuyiyuyyriuuypiryeryury5yi0yuuqryiyiyiyeyiuiiiyeyeyerey",
"i4iyeyiypepriqpyiyyrp0uy80u0e08y00uyeruyi0iyi0iyiyeyiei088i0e08y",
"iri0iyi0iii0uyiyiya0iyyuy0yueriy5upqiyp0iyu0iyiriya0iieye0eueyiy",
"iq8ueyiiaii4iryuiyiyiu8eu0i0iyu0uy8uyyiyayi5iyyuiyiyia80i0i0iyi0",
"iqiyp0ieiua8i0iyiyiyiiaupy8yuupyiyiyu0peiya0i0iyiiiyiiayiy8yiuiy",
"iqayeyeiieyyryi0ayiyyriei0iyyyeyiyayyryui0yryyi0aiiyeei0i0iyeyey",
"p4iyuuiiiiiquyiyiyruurup80iyiyiyi0uyiuupiyi0uyuyiieuieiy80iyiyiy",
"pqyyyyiiii8ypup4i0iiupyiayiyiryyiyeyyyiiiy8ypup4ieiyiieyayiyiyey"
};
