/* XPM */
static char *result[] = {
/* columns rows colors chars-per-pixel */
"64 64 226 2 ",
"   c #020104",
".  c #05030B",
"X  c #08050C",
"o  c #080314",
"O  c #0A0319",
"+  c #1B0B3E",
"@  c #230C3C",
"#  c #271638",
"$  c #291A39",
"%  c #2E2239",
"&  c #312838",
"*  c #343434",
"=  c #3B3B3C",
"-  c #1C0941",
";  c #2D144C",
":  c #2B0856",
">  c #3B2B4C",
",  c #2F0064",
"<  c #37076A",
"1  c #3C0C70",
"2  c #41374D",
"3  c #48404C",
"4  c #484848",
"5  c #565659",
"6  c #616161",
"7  c #6F6F6F",
"8  c #706E70",
"9  c #767676",
"0  c #7C7C7C",
"q  c #807F7F",
"w  c #7F807F",
"e  c #80807F",
"r  c #4E039E",
"t  c #531291",
"y  c #59298B",
"u  c #68359A",
"i  c #4E04A0",
"p  c #5606AA",
"a  c #6B18BF",
"s  c #7831B9",
"d  c #775296",
"f  c #7F7E81",
"g  c #7C4DAE",
"h  c #7E4DB2",
"j  c #7F50B1",
"k  c #7B6DAA",
"l  c #7107DD",
"z  c #7219D6",
"x  c #5A2FD9",
"c  c #7A2FCF",
"v  c #6E2DD8",
"b  c #6E30D4",
"n  c #7505E5",
"m  c #7905ED",
"M  c #7809EA",
"N  c #671AEE",
"B  c #691BED",
"V  c #7D19E2",
"C  c #7A15E9",
"Z  c #711EEF",
"A  c #6F0EF1",
"S  c #7B04F5",
"D  c #7609F7",
"F  c #740CF4",
"G  c #7A09F4",
"H  c #7E01FA",
"J  c #6616F0",
"K  c #6C13F2",
"L  c #661CF2",
"P  c #691AF2",
"I  c #7314F5",
"U  c #721AF4",
"Y  c #7414F8",
"T  c #7318F8",
"R  c #5D29EB",
"E  c #5938EA",
"W  c #5C31F0",
"Q  c #6423ED",
"!  c #6A25EC",
"~  c #622AEE",
"^  c #7120ED",
"/  c #6333ED",
"(  c #7432ED",
")  c #6424F1",
"_  c #6A22F1",
"`  c #632BF1",
"'  c #6633F2",
"]  c #6438F2",
"[  c #3F7AEC",
"{  c #7645C5",
"}  c #5747ED",
"|  c #4C57EA",
" . c #5758ED",
".. c #5949F1",
"X. c #6B4AEF",
"o. c #6754F1",
"O. c #4967ED",
"+. c #4173EC",
"@. c #546AF1",
"#. c #506DF1",
"$. c #4676F2",
"%. c #7469EF",
"&. c #807F80",
"*. c #82758E",
"=. c #827094",
"-. c #804FAC",
";. c #8258AA",
":. c #8149B6",
">. c #8145BA",
",. c #8050B2",
"<. c #8060A4",
"1. c #892CDA",
"2. c #952EDC",
"3. c #963BDB",
"4. c #810EEC",
"5. c #881BE9",
"6. c #8003F5",
"7. c #800CF1",
"8. c #8000FB",
"9. c #841BF2",
"0. c #8A19F4",
"q. c #8A26E6",
"w. c #9129E5",
"e. c #8C34E5",
"r. c #9435E2",
"t. c #9A39E6",
"y. c #8A46C6",
"u. c #9248CA",
"i. c #9556C6",
"p. c #8C46DB",
"a. c #9A45D9",
"s. c #9E57DA",
"d. c #A35ECD",
"f. c #A34CDB",
"g. c #A658DA",
"h. c #946FDF",
"j. c #A766CD",
"k. c #AD6ED3",
"l. c #AB65DA",
"z. c #B36CD8",
"x. c #B26BDC",
"c. c #AC74DA",
"v. c #B677D7",
"b. c #B473DB",
"n. c #9C43E4",
"m. c #9C4DE3",
"M. c #9A53E1",
"N. c #A449E6",
"B. c #AB58E6",
"V. c #B15AE8",
"C. c #AD64E2",
"Z. c #AE6AE6",
"A. c #B468E5",
"S. c #B574E1",
"D. c #BB75E2",
"F. c #BB7BE3",
"G. c #BA75E9",
"H. c #C17EDE",
"J. c #C17CEE",
"K. c #C17AF1",
"L. c #7F8080",
"P. c #3B84ED",
"I. c #3892F2",
"U. c #35A5F4",
"Y. c #29B7F5",
"T. c #30B1F7",
"R. c #4B85F3",
"E. c #6CA3ED",
"W. c #1AD9F8",
"Q. c #28C9F4",
"!. c #0BEAF7",
"~. c #0CEAFA",
"^. c #12E6F8",
"/. c #808080",
"(. c #9D9D9D",
"). c #A291B5",
"_. c #A4A4A4",
"`. c #AAAAAB",
"'. c #B3B3B3",
"]. c #BCBCBC",
"[. c #AF8ECA",
"{. c #BA87D6",
"}. c #BC84DB",
"|. c #BD8BDA",
" X c #B5A3C7",
".X c #BB82E3",
"XX c #BD8FE6",
"oX c #BE8EE8",
"OX c #BB92E3",
"+X c #C28DDC",
"@X c #C496DC",
"#X c #CA9BDD",
"$X c #CCA3DD",
"%X c #C9A7DE",
"&X c #D1ADDE",
"*X c #C7B3D7",
"=X c #C48CE1",
"-X c #C584EC",
";X c #C997E7",
":X c #C399E4",
">X c #CB9CE2",
",X c #C688F1",
"<X c #CC92F4",
"1X c #CCA3E3",
"2X c #C9A3E6",
"3X c #CCABE3",
"4X c #D5A7E7",
"5X c #D3AAE5",
"6X c #CEB5E5",
"7X c #D5B4E5",
"8X c #D8B7E6",
"9X c #D6BCE9",
"0X c #DBBAEA",
"qX c #D3ABF2",
"wX c #E1BEEB",
"eX c #C6C6C6",
"rX c #CCCCCC",
"tX c #D1CDD1",
"yX c #D3D3D3",
"uX c #DCDCDC",
"iX c #DAC3E5",
"pX c #DCC5EB",
"aX c #D8CAF1",
"sX c #E1C4EC",
"dX c #E5CDEE",
"fX c #E8D6EE",
/* pixels */
"H H ) n.N.G.( Y 6.< m H 8.8.8.H H H p t w.V.,X,XK.X.8.8.H H H H H H S V.S H H ` N.N.K.( H H , S 6.8.8.H H 8.8.H i i w.A.G.,XK.X.",
"H H L n.S t.0.8.H , m 8.H H H H H H p y B.N.A.,XK.%.H 8.H H H H D H H H H H H ~ N.H t.0.S S , S 8.8.H 8.H H H 8.r u A.t.A.J.,Xo.",
"L L W n.~ w.H H H , m 8.8.8.H 8.H H p t N.V.C A.,X%.' ` ` ` ' ] W ' ' ' ' ' ' } N.) 5.H H S , m 8.8.H 8.H 8.H H r t V.t.C A.G.%.",
"9.w.B.A.F H H H H , m H H 8.H H H S p y ,X<X,X<X<X,XG.-X_ t.G.K.Z.V.w.w.w.5.w.B.Z.D H H H S , S H H H H H H H H i u J.<X,X<X<X,X",
"qX:X6X2XoXoXoXoXoX).oXoXoXoXoXoXoXoX[. X9X6X9XpX6X3X3X1Xi.i.i.s z i.i.y.y.y.1X1X3XoXoXoXXXOX).OXoXoXoXoXoXoXoXoX[. XpX9X9XiX9X9X",
"uXuXuXuXuXuXuXuXuXuXuXuXuXuXuXuXuXuXuXuXuXuXuXuXuXuXuXuXd < 1 1 < 1 1 1 1 ).uXuXuXuXuXuXuXuXuXuXuXuXuXuXuXuXuXuXuXuXuXuXuXuXuXuX",
"uXuXuXuXuXuXuXuXuXuXuXuXuXuXuXuXuXuXuXuXuXuXuXuXuXuXuXuXj.j j ,.g g ,.,.g *XuXuXuXuXuXuXuXuXuXuXuXuXuXuXuXuXuXuXuXuXuXuXuXuXuXuX",
"uXuXuXuXuXuXuXuXuXuXuXuXuXuXuXuXuXuXuXuXuXuXuXuXuXuXuXuX).g j j , g -.-.g *XuXuXuXuXuXuXuXuXuXuXuXuXuXuXuXuXuXuXuXuXuXuXuXuXuXuX",
"uXuXuXuXuXuXuXuXuXuXuXuXuXuXuXuXuXuXuXuXuXuXuXuXuXuXuXuX[.,.j h j j j j ,.*XuXuXuXuXuXuXuXuXuXuXuXuXuXuXuXuXuXuXuXuXuXuXuXuXuXuX",
"uXuXuXuXuXuXuXuXuXuXuXuXuXuXuXuXuXuXuXuXuXuXuXuXuXuXuXuXa.S y y y y y a S :XuXuXuXuXuXuXuXuXuXuXuXuXuXuXuXuXuXuXuXuXuXuXuXuXuXuX",
"uXuXuXuXuXuXuXuXuXuXuXuXuXuXuXuXuXuXuXuXuXuXuXuXuXuXuXuXm.S j j j ;.j c H OXuXuXuXuXuXuXuXuXuXuXuXuXuXuXuXuXuXuXuXuXuXuXuXuXuXuX",
"uXuXuXuXuXuXuXuXuXuXrXtXuXuXuXuXuXuXuXuXuXuXuXuXuXuXuXuXm.M h g g g j c G @XuXuXuXuXuXuXuXuXuXuXuXuXuXuXuXeXuXuXuXuXuXuXuXuXuXuX",
"uXuXuXuXuXuXuXuXuXuX`.'.].uXuXuXuXuXuXuXuXuXuXuXuXuXuXuXm.y.g g j j h g V :XuXuXuXuXuXuXuXuXuXuXuXuXuXuXuX'.'.rXuXuXuXuXuXuXuXuX",
"uXuXuXuXuXuXuXuXuXuX'.(._.uXuXuXuXuXuXuXuXuXuXuXuXuXuXuXm.V V V V V V V 4.:XuXuXuXuXuXuXuXuXuXuXuXuXuXuXuX`.(.'.uXuXuXuXuXuXuXuX",
"uXuXuXuXuXuXuXuXuXuX'._.eXuXuXuXuXuXuXuXuXuXuXuXuXuXuXuXm.8.8.H H H H H H :XuXuXuXuXuXuXuXuXuXuXuXuXuXuXuX(.(.yXuXuXuXuXuXuXuXuX",
"uXuXuXuXuXuXuXuXuXuXuXuXuXuXuXuXuXuXuXuXuXuXuXuXuXuXuXuXm.8.H H H H H H H :XuXuXuXuXuXuXuXuXuXuXuXuXuXuXuXuXuXuXuXuXuXuXuXuXuXuX",
"uXuXuXuXuXuXuXuXuXuXuXuXuXuXuXuXuXuXuXuXuXuXuXuXuXuXuXuXm.H H 8.8.H 8.8.H @XuXuXuXuXuXuXuXuXuXuXuXuXuXuXuXuXuXuXuXuXuXuXuXuXuXuX",
"uXuXuXuXuXuXuXuXuXuXuXuXuXuXuXuXuXuXuXuXuXuXuXuXuXuXuXuXm.H 8.H H H 8.H H @XuXuXuXuXuXuXuXuXuXuXuXuXuXuXuXuXuXuXuXuXuXuXuXuXuXuX",
"uXuXuXuXuXuXuXuX].].].].].].].uXuXuXuXuXuXuXuXuXuXuXuXuXm.H H 8.8.H H H H :XuXuXuXuXuXuXuXuXuXuXuXuXuX'.].].].].].].uXuXuXuXuXuX",
"uXuXuXuXuXuXuXuX/./.q /./././.uXuXuXuXuXuXuXuXuXuXuXuXuXm.H 8.8.8.8.8.H H :XuXuXuXuXuXuXuXuXuXuXuXuXuXL.e e w e /./.uXuXuXuXuXuX",
"uXuXuXuXuXuXuXuX0 /./.e 9 9 9 rXrXrXrXrXrXrXrXrXrXrXrXrXu.l l n n l l l l {.rXrXrXrXrXrXrXrXrXrXrXrXrX9 9 9 w w /./.uXuXuXuXuXuX",
"uXuXuXuXuXuXuXuXq e /.7                                                                                     5 w /./.uXuXuXuXuXuX",
"uXuXuXuXuXuXuXuXe e q X   $ & @ & $ & & $ & & # # & & $ & % # & @ $ - % % # # # # @ # $ @ % % & $ + + - + o   0 /./.uXuXuXuXuXuX",
"uXuXuXuXuXuXuXeXe e q X X r.;Xd.j.8X{.v.@XsXv.l.x.4XqXg.#X1X3.+X+XC.f.;X;Xx.l.3.;X}.3.G.2.sX4X5XF.5.D #.F :   0 /./.yXuXuXuXuXuX",
"uXuXuXuXuXyXuX`.q e /.. o H 1.=XiXk.8X+XpXb.f.N.x.4XqXg.@X4X3..Xf.g.=X;X=XZ.x.q.M.8Xv.D.w.8X7X8XD.5.@.G 2.>   0 /./.tXuXuXuXuXuX",
"uXuXuXuXuXuXuX`.q e e . . o.t.x.1Xz.5X8X.Xg.s.s.c.3X>Xg.@X2Xa..Xf.2.S.;X|.l.C.q.P M.9XOX2.>X5X8XD.5.m r.v.>   0 /./.tXuXuXuXuXuX",
"uXuXuXuXuXuXuX`.e e e X . B ! n.z.#XpX|.8X|.R N x N P P N P J N B P P P P L L J J P P E |.|.+X5Xb.r.r.b.9X3   9 /./.yXuXuXuXuXuX",
"uXuXuXuXuXuXuX`.e e e   o 5.5.b.$XdXv.#X+X6XJ @.B F H H H H H H H D H H H H H H H H H ) 9XXX|.7XD.+Xv.iX1X>   0 /./.yXuXuXuXuXuX",
"uXuXuXuXuXuXuX`.e e e X X 1.=X$XsXz.>X5XD.c.R N E N J L L J P P P L P P P P P L K P P E C.8X=X8Xz.v.0X$Xj.:   0 q q tXuXuXuXuXuX",
"7.G 7.7.7.7.7.h /./.e X X b.$XdX>Xc >X5Xv.2XJ D S F S D D 9.9.9.G 0.9.I D 9.9.9.D D D ` w.=X8X@Xv.sX4Xj.a.;   0 q q c 4.C 7.7.7.",
"8.8.8.H H 8.H >./././.  X $X0Xk.X.! qX5XF.OXJ H H H H H H H S S H D S S H S S H D H H ) q.N.F.8X+X#Xj.@XiX>   0 q q z S H 8.8.8.",
"H 8.H H H S H ;./.e e X X wXj.g.4.@.t.x..XS.K H S S m S H H S S H H S S S H S S H H H ) w.b.z.iX8X+X3.g.#X2   0 q q 1.8.H H H H ",
"H D D W W.W.~ *.w w w X X k.0X4Xf.C  .e.f.g.J H l.@X+Xb.v..Xc.B.v.F.b.B.v.F.S.b.m.0.H ) a.v.sX;X+X0X+X3.g.>   f f 0 <.G D S H G ",
"H H H P Y.Y.{ ;.;.k k o X >X2X8X5Xf.C 2.N.( K H H S G H H S G S S S F S S S S D S H H ` c.sX2Xk.b.x.wXv.2.>   d ;.;.,.V H D D H ",
"H H 8.8.8.8.H H H H H o X +X$X:X0X5Xf.4.S e.K H H S D H S H H S S H S H S H H S S S H ~ dX:Xl.$XD.5.g.8X+X;   M H H 8.H H H H H ",
"H H H 6.H 8.H H H H H O . A.|.$X1X0X4Xf.M e.K H {..XS.b.l.b.F.b.{.x.C.b.F.b..XS.|.N.9.R :Xd.,X$XH.0...h.v.;   n H H 8.H 8.8.8.8.",
"G H H H G H H H 6.E B O . H A.|.>X1X8X$Xa.p.K H S S S S S S S D S S S S S S S m H H H ) g.g.,X1XH.5.#.F 4.:   M H H 8.8.8.H H H ",
"^.| D } ^.W.E F F W.Y.O X t.t.b.|.1X1X0X$Xs.K H H H S S H H H H H H D H H H H H H H H R 1.B.C.b.H.X.G H H :   n D F F ' F D F D ",
"T.K S F U.U.F H H Y.I.O X wX7Xa.Z.|.#X$X0X3XJ H H H H H H H H H H H H H H H H H H H H ) q.B.m 2.f.w.H H 6.:   n H H H D H H H H ",
"H H H H H 8.6.H 8.K F O X 4X2.>XQ C.{.4X>XaXJ H H H H H H H H H H H H H D H H H H H H ) q.V.G q.B.5.8.8.H :   m H H H H H H H H ",
"H H H H H D H H H H H O X 3.|.;XC G z.@X#X%XE Q ) N ) N Q Q Q Q R Q Q Q ! _ Q Q Q Q Q E q.B.} C 5.H H H H :   m H H H H H H 8.H ",
"F H H H } E H H 8.G G o X g.g.fX5X$X$XfX&X&XiXj.2Xg.A #.q.k.&X9XXX#X2X}.v.v..Xx.5.u.:Xs.b.E.D H H 8.8.H H :   m H H H H H H 8.H ",
"!.O.H G W.W.S D } ^.W.o X 8XfXfX+X{.7XiXfX+X}.+XiX5X..q.x.3X0Xz.p.sXa.q.5.w.5.5.1.5.S.:Xa.C.H H H H H H 8.:   z U U U ] C U I U ",
"I.F H H T.T.8.8.D $.$.O X [.*X&Xu.|.@X*Xi.u.y.d.v.&X#Xk.%X*Xj.z x k.{.{.[.v.{.|.z.a.k.3.v.u.n n n n n n n :   m H H H S H H H H ",
"H H H H A F H H H 8.D O                         .                   X                 .                       m H 8.H H H H H H ",
"H H H 8.H H H H H H H 2 = = = = = = = = = = = = = = = = = = = = = = = = = = = = = = = = = = = = = = = = = = = m H 8.8.8.H H H H ",
"O.H H H F F H H H | R *.q e /./.q e /./././.q &././././././././.w e e /.w e /./.&./.&./././././././.q q /./.&.G H H 8.8.H 8.H H ",
"^.F Y | !.~. .F I W.Y.*./././././.e /././././././././././././.q * 6 e /.w e /./././././././././././.e e /./.&.Z Y Y Y Y Y Y Y Y ",
"Y.H H F +.O.D H H U.+.*.e e /./.L././.e L./.e /././.L.L.e e e 0 . * 0 &./.e q q L./.L./.L.L.L.L.L.L./.L./.L./.m H H H H H H H H ",
"F H H H H H 8.H H F S ;.e e /././.&.&.&.&./.e e /./././.e q e e e /./.q /.e q q &.&./.&./.&.&.&.&./.&././.e =.G H H 8.8.H H 8.8.",
"8.H 8.8.H H H 8.H H H S >.:.:.:.:.:.:.h :.:.>.:.:.h :.:.:.6 6 6 6 6 6 6 6 d :.:.:.:.:.:.:.h :.:.:.:.:.:.:.:.G 8.H H 8.H H 8.H 8.",
"L H H H O.| H 8.H K I H H 6.8.8.H H H F D H 8.8.} F H H M 4 4 4 4 4 4 4 4 a H H H H H H D H H H H H H H H H H H H H H H H H H H ",
"!.R.D D W.W.Y D #.~.^...Y D Y F Y D  .~.Q.B I I W.| I F / w &./.e e e /.q c F I Y Y I I Q.U I I U U.T Y I I Y Y Y Y K o.I I Y I ",
"O.D H H I.P.H 8.H ..E H H H H H H H H W ) H H H $.P H H M w &.&.e e /./.q c H H H H H H ! H H H 8.H H H H 8.H 8.8.H 8.8.H H 8.H ",
"H H H H F H H H H H 8.H 8.H 8.H 8.H H D H H 8.H G H H 6.c 9 9 9 0 0 0 9 9 g S H 8.H 8.H H 8.8.8.8.H H 8.8.H H 8.8.8.H H H H 8.H ",
"H H H H H H 8.H H D H H H H H 8.H H H H H H H H H H H V 7 7 8 8 7 7 7 7 7 7 c H H H 8.H H 8.H 8.H H 8.H H H H H 8.H H H 8.H 8.H ",
"H H 8.H ~ ~ H H H +.} S H 6.P A H H H O.K H 8.8.F H 6.;.f f f f 0 &.&.&.f &.=.! 8.H H H H H 8.H 8.G H H 8.8.H H H H H H H 8.H 8.",
"U U U $.~.!.#.P U W.Y.B B O.~.^./ U B ^.[ C Z ..!.Q.Z ! v v v v b v b b v b b W._ ^ ^ U ^ ^ ^ U ^ T.^ ^ ^ ^ R.^ ^ U _ o.^ _ ^ U ",
"H H H D E E H H S P.| H H H ~ L H H D $.) H H D K F H H H H 8.8.H H H 8.H 8.H ` H H 8.8.8.H H H 8.Y 8.H 8.8.H H H H H H 8.8.H H ",
"H H H H H H H H H H H H H H H H H 8.H H H H H H 6.H H 8.H H H 8.H H 8.H H H 8.S 8.8.H 8.8.8.8.H 8.8.H 8.8.8.H 8.H 8.H H H H H 8.",
"H H H H D H H H H 8.8.H H 8.H H 8.H 8.H H H 8.H H H H H H H H H 8.8.H H H H H H 8.H H D H H 8.8.H H 8.8.8.8.8.8.H H H H H H H H ",
"..D H H [ [ S H H W ~ H H D +.E H 8.H B I H H H O.I H H H Y S H H 8...D H H H H H 8.H H U 6.H 8.H H H H D 8.D 8.H H H H H H H H ",
"~.I.K Y W.W.U U #.!.~...U K ^.U.U U  .^.W.! U U ^.| T T E ^.U.U U U W.~ U T T T U U U U W.U T T U U U U U U R.U U T U o.U U T T ",
"E H H H [ O.S H S ) Q H H H O.~ S H S A F S 8.6.| F H H 6.G H H 6.H ] S H H H H 8.S H 8.I 8.G H 8.H H H 8.8.7.G H H 6.8.H H H H "
};
