/* XPM */
static char *_d2fc7c4a1c14a23c5a88d8df6183bcdw3fl19QXqS8QHCKO[] = {
/* columns rows colors chars-per-pixel */
"64 64 237 2 ",
"   c #771BED",
".  c #7D06F6",
"X  c #730EF7",
"o  c #7E0AF4",
"O  c #7D01FC",
"+  c #730DF9",
"@  c #7908FC",
"#  c #6C1CF7",
"$  c #7015F4",
"%  c #7315FB",
"&  c #7119FA",
"*  c #7D2AEC",
"=  c #7B35EA",
"-  c #6626F5",
";  c #3F76F5",
":  c #3E7DF7",
">  c #5748F6",
",  c #4C5CF6",
"<  c #4C5DF9",
"1  c #5550F4",
"2  c #7845EA",
"3  c #6659EB",
"4  c #7958E9",
"5  c #4E7EED",
"6  c #5B7CEB",
"7  c #4961F6",
"8  c #4967F6",
"9  c #426BF3",
"0  c #4A63FA",
"q  c #506EF1",
"w  c #4374F6",
"e  c #407AF7",
"r  c #4275F8",
"t  c #4079F8",
"y  c #6A69E8",
"u  c #7765E5",
"i  c #6577E7",
"p  c #747AE7",
"a  c #7A7DE5",
"s  c #8D1EE7",
"d  c #8716ED",
"f  c #8816EF",
"g  c #861BEC",
"h  c #8C1CEB",
"j  c #810BF4",
"k  c #8107FB",
"l  c #810AF9",
"z  c #8514F5",
"x  c #8915F0",
"c  c #871AF4",
"v  c #891BF4",
"b  c #8412F8",
"n  c #8D22EB",
"m  c #8A2AE8",
"M  c #8D2AEB",
"N  c #932DE4",
"B  c #9124EB",
"V  c #922CEA",
"C  c #8938E6",
"Z  c #9633E3",
"A  c #9834E4",
"S  c #9C3CE3",
"D  c #9334EB",
"F  c #9739E9",
"G  c #9129F7",
"H  c #983AF5",
"J  c #A03EE8",
"K  c #864CDC",
"L  c #9D45DC",
"P  c #9949DF",
"I  c #8A56DD",
"U  c #9758DD",
"Y  c #A144DF",
"T  c #A34DDC",
"R  c #A553DD",
"E  c #A956DD",
"W  c #A65ADA",
"Q  c #AB5BDD",
"!  c #886DDE",
"~  c #9969DE",
"^  c #9B74DB",
"/  c #AC63DC",
"(  c #AB69DA",
")  c #B063DC",
"_  c #B36CDD",
"`  c #A473DC",
"'  c #AD76DC",
"]  c #B672DC",
"[  c #B877DA",
"{  c #BB7CDE",
"}  c #8948E4",
"|  c #9C44E4",
" . c #9A4BE4",
".. c #9C45ED",
"X. c #8954E3",
"o. c #9758E3",
"O. c #9A41F0",
"+. c #A246E3",
"@. c #A44CE2",
"#. c #A449E9",
"$. c #A653E1",
"%. c #AA55E2",
"&. c #AB5BE2",
"*. c #A655EA",
"=. c #A24AF7",
"-. c #A857F6",
";. c #8567E4",
":. c #9865E3",
">. c #8878E4",
",. c #9778E3",
"<. c #AE62E1",
"1. c #A86BE7",
"2. c #AC63EC",
"3. c #B264E3",
"4. c #B56CE2",
"5. c #B469EA",
"6. c #A975E3",
"7. c #B972E1",
"8. c #BC7BE2",
"9. c #B578E9",
"0. c #AD61F7",
"q. c #B36CF8",
"w. c #B878F4",
"e. c #3C81F7",
"r. c #358AF4",
"t. c #378FF9",
"y. c #2E9BF5",
"u. c #3594F9",
"i. c #3398F9",
"p. c #13BAEB",
"a. c #1FB7F7",
"s. c #3DA5EB",
"d. c #39B6EF",
"f. c #27AAF5",
"g. c #39A9F2",
"h. c #21B4F7",
"j. c #22B5F8",
"k. c #34BCF2",
"l. c #7781DD",
"z. c #4D8EEE",
"x. c #5A87EB",
"c. c #4797ED",
"v. c #5A99EB",
"b. c #6D86EA",
"n. c #7B84E5",
"m. c #699AEA",
"M. c #7499E7",
"N. c #46AAED",
"B. c #58A8E8",
"V. c #57B6EC",
"C. c #4AA2F0",
"Z. c #47B9F1",
"A. c #52B5F0",
"S. c #67A8EA",
"D. c #6CB8EC",
"F. c #77B2EB",
"G. c #0EC8EF",
"H. c #11C8EF",
"J. c #0FC5F1",
"K. c #0ECCF1",
"L. c #11CDF3",
"P. c #16C8F4",
"I. c #14CEF9",
"U. c #0DD4F4",
"Y. c #0BDCF6",
"T. c #0ED6FA",
"R. c #0DDCF9",
"E. c #11D3F4",
"W. c #14DDF7",
"Q. c #18D9F7",
"!. c #12D1F9",
"~. c #24CAF4",
"^. c #2BC9F3",
"/. c #38C8F2",
"(. c #23D6F6",
"). c #2CD4F4",
"_. c #23DCF5",
"`. c #37D6F3",
"'. c #07E3F7",
"]. c #0AE2F7",
"[. c #06E6F8",
"{. c #0AE4F9",
"}. c #03EEFA",
"|. c #0AEAFA",
" X c #19E5F7",
".X c #14E9F9",
"XX c #34E8F3",
"oX c #49CCEE",
"OX c #44CBF0",
"+X c #5ACBF1",
"@X c #45D3F1",
"#X c #63CBEE",
"$X c #43E8F4",
"%X c #9189DE",
"&X c #A582DD",
"*X c #BE81DD",
"=X c #AF9DDF",
"-X c #B99BDE",
";X c #8589E6",
":X c #918AE2",
">X c #8697E8",
",X c #9898E5",
"<X c #A88AE4",
"1X c #BA82E2",
"2X c #A396E4",
"3X c #BC84F2",
"4X c #88A5E8",
"5X c #98A7E7",
"6X c #B3B3E6",
"7X c #C187DD",
"8X c #C59ADC",
"9X c #C183E3",
"0X c #C38BE7",
"qX c #C897E7",
"wX c #CA9AE2",
"eX c #C18AF6",
"rX c #C692F6",
"tX c #CDA3E5",
"yX c #D2A9E5",
"uX c #CEB5E8",
"iX c #D8B6EA",
"pX c #CEA4F5",
"aX c #D2AAF3",
"sX c #D9B9F4",
"dX c #BDC5E8",
"fX c #DBCCEB",
"gX c #DEC2F5",
"hX c #E1C9EB",
"jX c #E3CDFB",
"kX c #E8D5F7",
"lX c #EBDAFA",
"zX c #EFE1F8",
"xX c #F1E6FB",
"cX c #F4EBFA",
"vX c #F7F0FA",
"bX c #FAF6FC",
"nX c #FEFDFE",
/* pixels */
"E N N | 5Xn.p p a >.6.8.*X&X=X0XQ Y $.C i }.}.}.}.|.x.X.%.8.] R R ] { [ [ [ *X9X9X9X8.@.h B %.A N L A N ^.|.|.|.'.|.|.}.}.}.}.}.",
"9X<.&.qXuX1X6.6.6.9.1X0X{ [ ' *X8.L Y 4.X.|.}.}.|.c.} $.7X{ Q L L E T | Z Z A S A F A B j j n _ +.N S | ~.|.'.{.'.].R.].].{.].Y.",
"*X/ _ iXtXQ Y Y T _ ] 7XwX_ L Y $.7._ ] 2X|.}.}.6 P %.1X4.R C v.F.{ &.f j j j j j j j j o o j R :X .N S Z. X].U.E.E.I.E.J.J.L.W.",
"7X_ ] iXtX3.&./ _ *XwXtX7X_ E E R Q T _ 1X#X Xc.X.$.8.{ R  .6 (.`.,.+.n x x f f x f f f f x j T :.P N Z A.).|.'.].].{.].].Y.Y.'.",
"{ E / yX0X+.S / ) wXwX4.S S Z N B @.9XT _ 1X2XP $.0X{ Q C z.{.}. XV.;X7.&.+.3.%.+.&.R R @.n N R Z Z @.:./. X].'.|.|.|.|.|.}.}.}.",
"8.Q ) iX0XT R ) *XwX_ Y A A S S h S 3.4.T _ 8.7.9X8.R P c.C.~. X X_.`.4X{ _ %.7.+.+.R R Q h A R A %.1.m.E.Y.E.E.Y.U.U.U.{.}.}.}.",
"<X~ ^ uX-X^ ` -X-X&XI K } } X.o.+.N D 3.3.R _ 9XqXQ C y .Xc.x.B.Z.|..XOX,X{ E %.&.+.T R Q s A T +.1.m.^.Y.Y.T.R.Y.Y.Y.Y.{.}.}.}.",
";Xl.l.2X2X;X:X,XM.d.~.~.~.~.~.^.S. .d V *.7.R _ 7.7.d.W.}.g.;.Q ` OX.X|.`.D.{ / @.3.T R &.s A T ~ d.{.}.}.}.}.}.}.}.}.}.|.}.}.}.",
";.u ;.~ :.;.,.M.v.s.Q.|.}.}.}.|.).,.A n D 5.&.E _ 8.oX X}.~.b.( _ S./.|..X`.<X[ T <.$.R <.s A T n..X}.}.}.}.}.}.}.}.}.}.}.}.}.}.",
"n h h h h h 3 )._.v.m.Z.|.}.}.}.{.a ) S h B *.3.R _ <X4X.X|._.S.:X_ ,.A.|.}.@X4X{ / $.$.3.n A R d.}.}.}.}.}.}.}.}.}.}.}.}.}.}.}.",
"M M B B m 3 C. X XN.;.>._.|.}.}.Q.I Q 4.S h D 5.&.E 4.8.+X X}.).V.' _ :X/.|..X`.,X<.$.&.3.h A T /.}.}.}.}.}.}.}.}.}.}.}.}.}.}.}.",
"1.1.6._ ~ S.@X@X@Xy C #.S.`. XW.Q.;._ 7X4.B h V 5.$.Q _ 5X#X|.}._.>X6./ ;X/.|.Q.m.P R &.5.B Z T d.{.'.}.'.].|.|.}.].].|.'.}.}.}.",
"6XdXfXkX6X;X>.;X;Xo.@.+.*.:.;Xn.v.oX5X( U >X .d V 3.) Q ] <XD. X}.).V.^ $.o.k.x.M Z $.$.3.h A T s.J.G.].K.L.U.Y.Y.L.U.].Y.}.}.}.",
"iXhXyXhXyX4.3.<.3.3.$.+.J #.3.&.;.`.@X! y `.,.n h D 8.Q ) ] 2X`.|.}._.M.o.4 v.N h S $.$.3.B A T s.J.G.].Y.U.U.L.U.Y.|.'.Y.}.}.}.",
"hX8X] iX8XW U U U U U o.o.o.o.;XoX}.}.|.|.|.B.6.} * C 1.o.~ 6.,XD.|.}.|.^.N.* m } :.:.:.1.m } U d.}.}.}.}.}.}.}.}.|.[.}.|.|.|.|.",
"iX7X{ hXtX( >.a n.n.;Xn.p y y p S.W.T.T.R.!.N.n.a 3 > 3 >Xa a ;XM.).R.!.g.y 3 3 y p p p n.3 3 y d.!.R.!.T.R.!.R.!.U.P.R.'.Y.Y.Y.",
"] T R wX7XI z.8 , 7 , 7 r.y.; , , 7 , 7 , < 7 , , 7 , 7 < , 7 < , , < 7 < , 7 < 7 , , 7 < < 7 < 7 , , 7 , , 7 , 7 , , y.{.G.U.{.",
"8.&./ tX1X:.6 % @ + + + 1 ; - O @ @ @ @ @ @ @ @ @ @ @ @ @ @ @ @ @ @ @ @ @ O @ @ @ @ @ @ @ @ @ @ @ O O @ O @ @ O @ @ O 8 }.|.|.}.",
"<X~ ^ tX| :.x.& @ # - & > 9 # O O O O O O O O O O O O O O O O O O O O O O O O O O O O O O O O O O O O O O O O O O O O < |.|.'.|.",
"$X_.Z.;.| :.6 + O 8 > @ 1 9 # O O O O O O O O O O O O O O O O O O O O O O O O O O O O O O O O O O O O O O O O O O O O 0 ].L.L.{.",
"XX).  2.5.6.x.& O X $ X > 9 # O O O O O O O O O O O O O O O O O O O O O O O O O O O O O O O O O O O O O O O O O O O O < |.{.'.].",
"$X X(.i M = q # O O @ O > 9 # @ @ O @ O @ @ O @ @ @ @ O @ @ O @ @ @ @ O @ @ O @ @ @ @ O @ @ O @ @ @ @ O @ @ @ @ O @ @ < }.}.}.}.",
"v.u 4 C Z } c.u.i.u.u.u.h.a.y.u.u.i.t.u.u.t.i.t.u.u.u.i.u.i.u.i.u.u.u.u.i.u.i.u.u.u.t.i.t.u.u.t.i.u.i.u.u.i.u.i.u.i.u.j.'.}.}.}.",
"A.2   Z P I 5 - + X X + + + + + + + + + + + + + + + + + + + + + + + + + + + + + + + + + + + + + + + + + + + + + + X X 7 '.}.}.}.",
"%Xv.g.d.d.k.g.% O O O O O O O O O O O O O O O O O O O O O O O O O O O O O O O O O O O O O O O O O O O O O O O O O O O 8 |.}.}.|.",
"[ ` ;.X.} u 5 % O O O O O O O O O O O O O O O O O O O O O O O O O O O O O O O O O O O O O O O O O O O O O O O O O O O < |.|.Y.H.",
"Q [ / S n = q % O O O O O O O O O O O O O O O O O O O O O O O O O O O O O O O O O O O O O O O O O O O O O O O O O O O 0 '.Y.K.U.",
"+.Q ] E Z = q + O O O O O O O O O O O O O O O O O O O O O O O O O O O O O O O O O O O O O O O O O O O O O O O O O O O 0 |.[.Y.[.",
",.F.U ' ( M.c.% O O O O O O O O O O O O O O O O O O O O O O O O O O O O O O O O O O O O O O O O O O O O O O O O O O O 0 }.}.}.}.",
"A.@Xv.S.S.OXg.+ O O O O O O O O O O O O O O O O O O O O O O O O l -.q.0.-.F -.q.-.. . -.q.q.-.O O O O O O O O O O O O 8 }.}.}.}.",
"}.}.}.}.}.}.h.% O O O O O O O O O O O O O O O O O O O O O O O O z sXnXnXiX&.aXbXlXb . -.cXbXcXw.G O O O O O O O O O O 0 }.}.}.}.",
"}.}.}.}.}.}.a.+ O O O O O O O O O O O O O O O O O O O O O O O O z gXnXnXsX| -.pXjXz O z w.vXnXzXeXb O O O O O O O O O 8 }.}.}.}.",
"}.}.}.}.}.}.h.% O O O O O O O O O O O O O O O O O O O O O O O O z sXnXnXiX| z O.pXb O O o rXvXnXzX-.z O O O O O O O O 0 |.}.}.}.",
"}.}.}.}.}.}.a.+ O O O O O O O O O O O O O O O O O O O O O O O O l pXcXnXlXqX. O c . O O O o -.bXnXcXrXH O O O O O O O 0 '.}.}.}.",
"}.}.}.}.}.}.h.% O O O O O O O O O O O O O O O O O O O O O O O O O q.gXbXbXzXv O O O O O O O o sXbXnXzXq.. O O O O O O 0 |.}.}.}.",
"}.}.}.}.}.}.h.+ O O O O O O O O O O O O O O O O O O O O O O O O O O G pXvXnXgX0.. O O O O O O . 0.vXnXcXw.H O O O O O 8 }.}.|.Y.",
"}.}.}.}.}.}.h.% O O O O O O O O O O O O O O O O O O O O O O O O O O O H gXbXnXzXH . . b z z z z c aXbXnXzXrXb O O O O 0 }.}.|.U.",
"}.}.}.}.}.}.h.% O O O O l b . l O l b . b . . l b O b . o . O O . z z O -.kXnXnXkXb z *.5.5.2.5.2.1.kXnXnXcX=.O O O O 0 }.}.|.Y.",
"}.}.}.}.}.}.a.+ O O O G 9.5.5.2.M 2.w.5.9.o n *.3XV 9.D g j O O b eX3Xv =.sXnXnXlXz M cXbXbXnXbXnXbXnXnXnXnX=.O O O O 8 }.}.}.}.",
"}.}.}.}.}.}.h.& O O O =.sXiXiXyX9.kXkXiXaXo  .qXiXU 8X .g z O O c aXkX-.=.gXnXnXkXv V xXnXnXnXnXnXnXnXnXnXnX0.O O O O < }.}.}.}.",
"}.}.}.}.}.}.h.+ O O O b F F ..D ......D *.. O.n ..D d n d j O O b aXkXiX0XqXlXkXsXz M cXnXnXgXrXrXrXrXrXrXrXG O O O O 8 }.}.}.}.",
"}.}.}.}.}.}.h.% O O O O O O O O O O O O O O O O O O O O . . O O . M F D F D F F V j V xXnXbX9.k O O k O k O O O O O O < }.}.}.}.",
"}.}.}.}.}.}.h.& O O O O O O O O O O O O O O O O O O O O O O O O O O O O O O O O O l V xXnXbX9.O O O O O O O O O O O O < }.}.}.}.",
"}.}.}.}.}.}.a.+ O O O O O O O O O O O O O O O O O O O O O O O O O O O O O O O O O k M lXcXcX5.O O O O O O O O O O O O 8 }.}.}.}.",
"}.}.}.}.}.}.h.& O O O O O O O O O O O O O O O O O O O O O O O O O O O O O O O O O O o D F D g O O O O O O O O O O O O < }.}.}.}.",
"}.}.}.}.}.}.j.+ O O O O O O O O O O O O O O O O O O O O O O O O O O O O O O O O O O O l l l . O O O O O O O O O O O O 8 }.}.}.}.",
"}.}.}.}.|.U.f.& O O O O O O O O O O O O O O O O O O O O O O O O O O O O O O O O O O O O O O O O O O O O O O O O O O O < }.}.}.}.",
"}.}.}.U.Y.U.f.% O O O O O O O O O O O O O O O O O O O O O O O O O O O O O O O O O O O O O O O O O O O O O O O O O O O 0 }.}.}.}.",
"}.}.}.'.'.'.h.+ O O O O O O O O O O O O O O O O O O O O O O O O O O O O O O O O O O O O O O O O O O O O O O O O O O O 8 }.}.}.}.",
"}.}.}.}.}.}.h.& O O O O O O O O O O O O O O O O O O O O O O O O O O O O O O O O O O O O O O O O O O O O O O O O O O O < }.}.}.}.",
"}.}.}.}.}.}.a.+ O O O O O O O O O O O O O O O O O O O O O O O O O O O O O O O O O O O O O O O O O O O O O O O O O O O 8 }.}.}.}.",
"}.}.}.}.}.}.!.e.r e.w : e r : w w : r e.t t e.r : e.r : t r e.w : : w e.r t : r : : r e.r : : r : : r e.r : : w e.r r f.}.}.}.}.",
"}.}.}.}.}.}.'.!.!.I.I.I.!.I.I.I.P.I.P.!.I.I.P.I.!.I.!.!.I.!.I.!.!.!.!.I.!.I.!.I.I.!.I.!.I.I.I.I.!.I.!.I.!.!.I.!.I.!.I.R.}.}.}.}.",
"}.}.}.}.}.}.}.}.}.|.'.[.].Y.'.Y.Y.Y.Y.].Y.'.U.Y.}.}.}.}.}.}.}.}.}.}.}.}.}.}.}.}.}.}.}.}.}.}.}.}.}.}.}.}.}.}.}.}.}.}.}.}.}.}.}.}.",
"}.}.}.}.}.}.}.}.[.U.Y.].U.K.Y.U.U.U.K.U.Y.U.J.U.}.}.}.}.}.}.}.}.}.}.}.}.}.}.}.}.}.}.}.}.}.}.}.}.}.}.}.}.}.}.}.}.}.}.}.}.}.}.}.}.",
"}.}.}.}.}.}.}.}.[.Y.].'.Y.Y.[.].].Y.Y.Y.'.Y.U.].}.}.}.}.}.}.}.}.}.}.}.}.}.}.}.}.}.}.}.}.}.}.}.}.}.}.}.}.}.}.}.}.}.}.}.}.}.}.}.}.",
"}.}.}.}.}.}.}.}.}.}.}.}.}.}.}.}.|.U.Y.].'.U.Y.Y.Y.Y.U.[.}.}.}.}.}.}.}.}.}.}.}.}.}.}.}.}.}.}.}.}.}.}.}.}.}.}.}.}.}.}.}.}.}.}.}.}.",
"}.}.}.}.}.}.}.}.}.}.}.}.}.}.}.}.].J.G.U.U.p.L.K.U.K.p.Y.}.}.}.}.}.}.}.}.}.}.}.}.}.}.}.}.}.}.}.}.}.}.}.}.}.}.}.}.}.}.}.}.}.}.}.}.",
"}.}.}.}.}.}.}.}.}.}.}.}.}.}.}.}.'.U.U.U.U.G.U.Y.].U.J.Y.}.}.}.}.}.}.}.}.}.}.}.}.}.}.}.}.}.}.}.}.}.}.}.}.}.}.}.}.}.}.}.}.}.}.}.}.",
"}.}.}.}.[.|.|.Y.'.|.|.'.].[.'.Y.].].Y.[.|.'.[.[.}.}.|.}.}.}.}.}.}.}.}.}.}.}.}.}.}.}.}.}.}.}.}.}.}.}.}.}.}.}.}.}.}.}.}.}.}.}.}.}.",
"}.}.}.|.Y.].'.J.U.'.].U.K.Y.U.J.U.E.H.Y.Y.Y.Y.Y.|.}.}.}.}.}.}.}.}.}.}.}.}.}.}.}.}.}.}.}.}.}.}.}.}.}.}.}.}.}.|.}.}.}.}.}.}.}.}.}.",
"}.}.}.Y.Y.L.J.U.Y.Y.E.L.R.{.Y.U.|.U.Y.U.E.{.U.J.[.}.}.}.}.}.}.}.}.}.}.}.}.}.}.}.}.}.}.}.}.}.}.}.}.}.W.Q.|.|.B.N.W.}.}.}.}.}.}.}.",
"}.}.}.}.}.}.}.}.}.}.}.}.|.|.|.|.|.|.|.|.}.|.|.Y.|.}.}.}.}.}.}.}.}.}.}.}.}.}.}.}.}.}.}.}.}.}.}.}.}.W.N.x.^./.>.>.Z.}.}.}.}.}.}.}.",
"}.}.}.}.}.}.}.}.}.}.}.}.Y.U.].|.|.|.|.|.|.Y.|.'.|.|.'.}.}.}.}.}.}.}.}.}.}.}.}.}.}.}.}.}.}.}.}.}.|.i C s &.Q ) ,.N.}.}.}.}.}.}.}."
};
