/* XPM */
static char *_241b6ee16bd47a3abde1bde78eeb2f5yI03y7W7mU7Cl353[] = {
/* columns rows colors chars-per-pixel */
"64 64 225 2 ",
"   c #020104",
".  c #05030B",
"X  c #08050C",
"o  c #080314",
"O  c #0A0319",
"+  c #1B0B3E",
"@  c #230C3C",
"#  c #271638",
"$  c #291A39",
"%  c #2E2239",
"&  c #312838",
"*  c #343434",
"=  c #3B3B3C",
"-  c #1C0941",
";  c #2D144C",
":  c #2B0856",
">  c #3B2B4C",
",  c #2F0064",
"<  c #37076A",
"1  c #3C0C70",
"2  c #41374D",
"3  c #48404C",
"4  c #484848",
"5  c #565659",
"6  c #616161",
"7  c #6F6F6F",
"8  c #706E70",
"9  c #767676",
"0  c #7C7C7C",
"q  c #807F7F",
"w  c #7F807F",
"e  c #80807F",
"r  c #4E039E",
"t  c #531291",
"y  c #59298B",
"u  c #68359A",
"i  c #4E04A0",
"p  c #5606AA",
"a  c #6B18BF",
"s  c #7831B9",
"d  c #775296",
"f  c #7F7E81",
"g  c #7C4DAE",
"h  c #7E4DB2",
"j  c #7F50B1",
"k  c #7B6DAA",
"l  c #7107DD",
"z  c #7219D6",
"x  c #5A2FD9",
"c  c #7A2FCF",
"v  c #6E2DD8",
"b  c #6E30D4",
"n  c #7505E5",
"m  c #7905ED",
"M  c #7809EB",
"N  c #671AEE",
"B  c #691BED",
"V  c #7D19E2",
"C  c #7A14E9",
"Z  c #711EEF",
"A  c #6F0EF1",
"S  c #7705F7",
"D  c #7B04F5",
"F  c #740CF4",
"G  c #7A09F4",
"H  c #7E01FB",
"J  c #760BF8",
"K  c #6616F0",
"L  c #6C13F2",
"P  c #661CF2",
"I  c #691AF2",
"U  c #7314F5",
"Y  c #721AF4",
"T  c #7414F8",
"R  c #7318F8",
"E  c #5D29EB",
"W  c #5938EA",
"Q  c #5C31F0",
"!  c #6423ED",
"~  c #6A25EC",
"^  c #622AEE",
"/  c #7120ED",
"(  c #6333ED",
")  c #7432ED",
"_  c #6424F1",
"`  c #6A22F1",
"'  c #632BF1",
"]  c #6633F2",
"[  c #6438F2",
"{  c #3F7AEC",
"}  c #7645C5",
"|  c #5747ED",
" . c #4C57EA",
".. c #5758ED",
"X. c #5949F1",
"o. c #6B4AEF",
"O. c #6754F1",
"+. c #4967ED",
"@. c #4173EC",
"#. c #546AF1",
"$. c #506DF1",
"%. c #4676F2",
"&. c #7469EF",
"*. c #807F80",
"=. c #82758E",
"-. c #827094",
";. c #804FAC",
":. c #8258AA",
">. c #8149B6",
",. c #8145BA",
"<. c #8050B2",
"1. c #8060A4",
"2. c #892CDA",
"3. c #952EDC",
"4. c #963BDB",
"5. c #810EEC",
"6. c #851CEA",
"7. c #881AE9",
"8. c #8003F5",
"9. c #800CF1",
"0. c #8000FB",
"q. c #8F1EF2",
"w. c #8A25E7",
"e. c #9129E5",
"r. c #8C35E4",
"t. c #9435E2",
"y. c #983AE6",
"u. c #8A46C6",
"i. c #9248CA",
"p. c #9556C6",
"a. c #8C46DB",
"s. c #9945DA",
"d. c #9E57DA",
"f. c #A35ECD",
"g. c #A34CDB",
"h. c #A658DA",
"j. c #946FDF",
"k. c #A766CD",
"l. c #AB68D7",
"z. c #B36CD8",
"x. c #B26ADC",
"c. c #AC74DA",
"v. c #B678D7",
"b. c #B473DA",
"n. c #9A44E3",
"m. c #9C4CE3",
"M. c #9A53E1",
"N. c #A548E7",
"B. c #AA59E5",
"V. c #B15AE8",
"C. c #AD67E4",
"Z. c #B468E5",
"A. c #BB75E2",
"S. c #B976E6",
"D. c #C17EDE",
"F. c #C17CEE",
"G. c #C17AF1",
"H. c #7F8080",
"J. c #3B84ED",
"K. c #3892F2",
"L. c #35A5F4",
"P. c #29B7F5",
"I. c #30B1F7",
"U. c #4B85F3",
"Y. c #6CA3ED",
"T. c #1AD9F8",
"R. c #28C9F4",
"E. c #0BEAF7",
"W. c #0CEAFA",
"Q. c #12E6F8",
"!. c #808080",
"~. c #9D9D9D",
"^. c #9F81BF",
"/. c #A291B5",
"(. c #A4A4A4",
"). c #AAAAAB",
"_. c #B3B3B3",
"`. c #BCBCBC",
"'. c #AF8ECA",
"]. c #BA87D6",
"[. c #BC83DB",
"{. c #BD8BDA",
"}. c #B5A3C7",
"|. c #B982E5",
" X c #BE8EE8",
".X c #BB92E3",
"XX c #C28DDB",
"oX c #C496DC",
"OX c #CA9BDD",
"+X c #CCA3DD",
"@X c #C9A7DE",
"#X c #D1ADDE",
"$X c #C7B3D7",
"%X c #C48CE1",
"&X c #C584EC",
"*X c #C897E7",
"=X c #C399E4",
"-X c #CB9CE2",
";X c #C688F1",
":X c #CC92F4",
">X c #CCA3E3",
",X c #C9A3E6",
"<X c #CCABE3",
"1X c #D5A7E7",
"2X c #D3AAE5",
"3X c #CEB5E5",
"4X c #D5B4E5",
"5X c #D8B8E7",
"6X c #DBBAEA",
"7X c #D3ABF2",
"8X c #E1BEEB",
"9X c #C6C6C6",
"0X c #CCCCCC",
"qX c #D1CDD1",
"wX c #D3D3D3",
"eX c gainsboro",
"rX c #DDDDDD",
"tX c #DAC3E5",
"yX c #DCC5EB",
"uX c #D8CAF1",
"iX c #E1C4EC",
"pX c #E4CEEE",
"aX c #E6D4ED",
"sX c #EAD9F0",
"dX c #FAF9F8",
/* pixels */
"H H P n.N.S.o.S D , m H 0.H H H H H p t e.Z.&X;XF.o.H H H H H H H H D V.G H H ' N.N.G.) D m , D H H H H H 0.H H r t w.S.S.:XS.o.",
"H H P n.D y.q.H D , m H H H H H H H p y B.N.V.;X&X&.H H H H H H H H H H H H H ' N.D y.7.H D , D H H H 0.H H H H r u Z.t.Z.S.:XO.",
"I I Q N._ e.8.H D , m H 0.0.H H H H p t N.V.6.Z.;X&.] ' _ ' ] ] ( ] ] ] ] ' ] | N._ q.D H D , D H H H H H 0.H H r t B.y.C Z.S.&.",
"6.r.B.Z.G H H H D , m H H H H H H H p y &X:X&X:X:X&XG.F.~ y.S.G.Z.Z.e.e.e.7.e.V.Z.G H H H D , D H H H H H H H H i u S.:X;X:X:X;X",
"7X*X<X<X X X X X X/. X X X X X X X X'.}.5X4X3XtX3X<X3X<Xi.p.p.s z p.i.u.u.u.>X<X,X X X X X X/. X X X X X X X X X'.}.tX5X5XtXtX6X",
"rXrXrXrXrXrXrXrXrXrXrXrXrXrXrXrXrXrXrXrXrXrXrXrXrXrXrXrXd 1 1 1 1 1 1 1 1 /.rXrXrXrXrXrXrXrXrXrXrXrXrXrXrXrXrXrXrXrXrXrXrXrXrXrX",
"rXrXrXrXrXrXrXrXrXrXrXrXrXrXrXrXrXrXrXrXrXrXrXrXrXrXrXrX'.<.>.<.g <.<.<.<.$XrXrXrXrXrXrXrXrXrXrXrXrXrXrXrXrXrXrXrXrXrXrXrXrXrXrX",
"rXrXrXrXrXrXrXrXrXrXrXrXrXrXrXrXrXrXrXrXrXrXrXrXrXrXrXrX^.j <.<.< g <.<.<.$XrXrXrXrXrXrXrXrXrXrXrXrXrXrXrXrXrXrXrXrXrXrXrXrXrXrX",
"rXrXrXrXrXrXrXrXrXrXrXrXrXrXrXrXrXrXrXrXrXrXrXrXrXrXrXrX'.>.j j j j j <.>.$XrXrXrXrXrXrXrXrXrXrXrXrXrXrXrXrXrXrXrXrXrXrXrXrXrXrX",
"rXrXrXrXrXrXrXrXrXrXrXrXrXrXrXrXrXrXrXrXrXrXrXrXrXrXrXrXm.D y y y y y a D =XrXrXrXrXrXrXrXrXrXrXrXrXrXrXrXrXrXrXrXrXrXrXrXrXrXrX",
"rXrXrXrXrXrXrXrXrXrXrXrXrXrXrXrXrXrXrXrXrXrXrXrXrXrXrXrXm.D <.<.j <.j 2.H =XrXrXrXrXrXrXrXrXrXrXrXrXrXrXrXrXrXrXrXrXrXrXrXrXrXrX",
"rXrXrXrXrXrXrXrXrXrX0XwXrXrXrXrXrXrXrXrXrXrXrXrXrXrXrXrXm.M h g g g g c G =XrXrXrXrXrXrXrXrXrXrXrXrXrXrXrX9XrXrXrXrXrXrXrXrXrXrX",
"rXrXrXrXrXrXrXrXrXrX)._.`.rXrXrXrXrXrXrXrXrXrXrXrXrXrXrXs.u.;.h h h h h V =XrXrXrXrXrXrXrXrXrXrXrXrXrXrXrX_._.wXrXrXrXrXrXrXrXrX",
"rXrXrXrXrXrXrXrXrXrX_.~.(.rXrXrXrXrXrXrXrXrXrXrXrXrXrXrXm.V V V V V V V 5.=XrXrXrXrXrXrXrXrXrXrXrXrXrXrXrX(.~._.rXrXrXrXrXrXrXrX",
"rXrXrXrXrXrXrXrXrXrX).(.9XrXrXrXrXrXrXrXrXrXrXrXrXrXrXrXm.H 0.H H H H H H =XrXrXrXrXrXrXrXrXrXrXrXrXrXrXrX(.~.0XrXrXrXrXrXrXrXrX",
"rXrXrXrXrXrXrXrXrXrXrXrXrXrXrXrXrXrXrXrXrXrXrXrXrXrXrXrXm.0.H H H H H H H =XrXrXrXrXrXrXrXrXrXrXrXrXrXrXrXrXrXrXrXrXrXrXrXrXrXrX",
"rXrXrXrXrXrXrXrXrXrXrXrXrXrXrXrXrXrXrXrXrXrXrXrXrXrXrXrXm.H H H H H H H H =XrXrXrXrXrXrXrXrXrXrXrXrXrXrXrXrXrXrXrXrXrXrXrXrXrXrX",
"rXrXrXrXrXrXrXrXrXrXrXrXrXrXrXrXrXrXrXrXrXrXrXrXrXrXrXrXm.H H H H H 0.H H =XrXrXrXrXrXrXrXrXrXrXrXrXrXrXrXrXrXrXrXrXrXrXrXrXrXrX",
"rXrXrXrXrXrXrXrX`.`.`.`.`.`.`.rXrXrXrXrXrXrXrXrXrXrXrXrXm.H H H 0.H H 0.H =XrXrXrXrXrXrXrXrXrXrXrXrXrX`.`.`.`.`.`.`.rXrXrXrXrXrX",
"rXrXrXrXrXrXrXrX!.!.!.!.!.!.!.rXrXrXrXrXrXrXrXrXrXrXrXrXm.H 0.0.H 0.0.0.H =XrXrXrXrXrXrXrXrXrXrXrXrXrX0 !.!.!.!.!.!.rXrXrXrXrXrX",
"rXrXrXrXrXrXrXrX0 !.!.!.9 9 9 0X0X0X0X0X0X0X0X0X0X0X0X0Xi.l l l l l l l l '.0X0X0X0X0X0X0X0X0X0X0X0X9X9 9 9 0 !.!.!.rXrXrXrXrXrX",
"rXrXrXrXrXrXrXrX0 !.!.7                                                                                     5 !.!.!.rXrXrXrXrXrX",
"rXrXrXrXrXrXrXrX!.!.!.. . $ & @ & $ & % $ & & $ # & & # & $ # & @ $ - % % $ $ # @ @ # $ @ % % & $ @ + - + O   9 !.!.rXrXrXrXrXrX",
"rXrXrXrXrXrXrX9X!.!.!.. X t.%Xk.k.6X[.v.OXiXv.l.x.5X1Xh.oX>Xs.%X[.C.s.*X-XC.l.4.*X{.4.S.e.iX2X4XA.7.F %.F :   9 !.!.wXrXrXrXrXrX",
"rXrXrXrXrXrXrX).!.e e . X D 2.%XyXl.6X%XiXz.g.h.x.1X1Xh.oX>X4.&Xh.h.%X*XoXC.x.6.M.5X[.A.e.4X4X4XA.7.+.F t.>   0 !.!.qXrXrXrXrXrX",
"rXrXrXrXrXrXrX).!.!.e . X O.y.x.>Xz.2X5X|.f.s.d.x.<X*Xh.oX,Xs.|.d.4.S.*X{.l.x.w.L M.6X.Xt.-X2X4XA.7.D t.v.2   0 !.!.qXrXrXrXrXrX",
"rXrXrXrXrXrXrX).0 !.!.. X B ' n.z.OXyX{.6X{.E N E N N K I I I N I I I I I L I K I I I W {.{.XX4Xb.t.t.b.5X3   0 !.!.0XrXrXrXrXrX",
"rXrXrXrXrXrXrX).!.!.!.. X 6.6.b.>XpXb.OXXX3XK #.B F H H H H H H H H H H H H H H H H H _ 5XXX{.4XA.{.b.tX>X>   0 !.!.0XrXrXrXrXrX",
"rXrXrXrXrXrXrX).0 !.!.. X 2.%XOXiXz.-X2XA.c.E P W P I I I I I I I I I I I I I I I I B W C.5X%X5Xb.v.6X-Xf.;   9 e !.qXrXrXrXrXrX",
"9.9.9.9.G 9.9.h !.!.e . X A.+XpXOXv -X2XA.,XK S S S S S S S S S S S S S S S S S S S S ^ e.%X6XoXv.iX>Xk.n.;   9 !.q z 5.9.9.9.9.",
"0.0.H H H 0.H ,.!.!.e . X +X6Xl.) _ 7X2XA..XL H H H H H H H H H H H H H H H H H H H H _ w.N.A.6XoXOXk.OXtX>   9 !.*.V H H H H 0.",
"H H H H D G H :.!.w w . X 8Xk.h.C #.t.Z.&Xc.L H H H H H H H H H G |.B.|.C S.y.H H H H _ w.b.x.tX6X{.s.h.OX2   9 e e c H H H H H ",
"S S S Q T.T.^ =.!.f w . X z.6X1Xg.C ..r.s.l.L H H H H H H H H H 5.dXB.*Xm n.dXn.H H H _ d.b.iX-X{.6XXX4.h.;   0 e 0 1.S G G G S ",
"H H S I P.P.} :.:.k k o X -X>X5X2Xg.C r.N.w.L H H H H H H H H H D yXsXM D H n.dXs.H H _ c.yX,Xz.A.x.6X[.4.;   d :.:.:.V G H H H ",
"0.H H H H H H H H H H O X {.-X-X6X2Xg.5.D r.L H D G D D D D D 9.D m pXsXC m.m.].dXt.H ^ pX-Xk.+Xb.7.d.5XXX;   M H H H H H H H H ",
"H H H 0.H H H H H H H O o x.{.-X+X6X>Xg.5.r.L D ].OXXXXXv.-XS.w.5.6X*XdXr.dXdXdXdXC.H ^ =Xf.*X-XA.7.X.j.v.;   m H H 0.H 0.0.H 0.",
"D H H H G D H H 0.W P O X D Z.{.>X>X5X#Xg.a.L H G D D G D G D D D w.7.w.r.dXr.D D D H _ f.h.*X>XA.6.$.F 5.:   m H H H H H H H H ",
"Q. .F | Q.T.W F F T.P.O o y.y.b.{.>X>X6X+Xd.L H H H H H H H H H H H H H 6.|.6.H H H H _ w.B.V.c.D.o.S H H :   n F F F ] F F F F ",
"I.L G F L.L.F H D P.K.O X iX4Xs.C.{.OX+X6X$XL H H H H H H H H H H H H H H D H H H H H _ w.B.D 3.N.e.H H H :   n H H H F H H H H ",
"0.H H H H H H H H U F O X 1X2.-X! C.{.-X-XuXL H H H H H H H H H H H H H H H H H H H H _ w.B.G w.B.7.0.H H :   m H H H H H H H H ",
"H H H H H H H H H H H O X 4.[.*XC D A.XX-X@XW ! ! ! _ ! _ ! _ ! ! ! ! ! _ _ ! ! ! ! ! W w.B.| C 5.H H H H :   m H H H H H H H H ",
"A 0.H H | W H H 0.G G O X l.h.sX2X>XOXsX#X2XyXl.-Xh.A $.w.z.<X6X{.+X+X[.[.[.|.x.6.s.=Xh.b.Y.F H H 0.H H H :   M H H H H H H H H ",
"W. .H G T.T.G D | Q.T.o X 5XaXaX{.].4XtXsX].[.XXiX2XX.w.x.+X6Xx.a.yXg.w.w.7.7.7.7.7.S.%Xs.C.D H H H H 0.0.:   z Y U U [ U U U U ",
"K.F H H P.I.H H F %.%.O X '.$X#Xi.{.}.$Xp.i.i.p.c.#XoXk.+X4Xk.z x v.].].].v.].{.b.s.b.u.v.i.n n n n n n n :   M H H H S H H H H ",
"H H H H F F H H H H S O                       .       .                               .                       m H H H H 0.H H H ",
"H H H 0.H H H H H H H 2 = = = = = = = = = = = = = = = = = = = = = = = = = = = = = = = = = = = = = = = = = = = m H H H H H H H H ",
"+.H H H F F H H H  .E =.e e !.!.!.!.!.!.!.!.!.!.!.!.!.!.!.!.!.!.!.0 !.!.!.!.!.!.!.!.!.!.!.!.!.!.!.!.!.!.!.!.!.M H H H H H H H H ",
"T.F J +.E.W...J F T.P.=.!.!.!.!.!.!.!.!.!.!.!.!.!.!.!.!.!.!.!.0 * 6 0 !.!.!.!.!.!.!.!.!.!.!.!.!.!.!.!.!.!.!.f Z T T T T T T T T ",
"P.H H S @.%.S H H L.@.=.e w !.!.H.!.!.!.H.!.!.H.!.H.H.H.!.!.!.0 . * 0 !.!.!.!.!.H.!.H.H.H.H.H.H.H.!.!.H.!.f *.M H H H H H H H H ",
"F H H H D H 0.H H F G :.*.*.!.*.*.*.*.*.*.!.*.!.f *.!.!.!.!.!.!.!.0 !.!.!.!.*.*.*.*.*.*.!.*.*.!.*.!.*.!.*.!.-.D H H 0.H H H 0.0.",
"0.H H H H H H H H H H D ,.>.>.>.>.>.>.>.>.>.>.>.>.h >.>.h 6 6 6 6 6 6 6 6 d h >.>.>.>.>.>.>.>.>.>.>.>.>.>.>.M H H H H H H 0.H H ",
"P H H H  . .H H H L U D H H H 0.H H H F S H 0.H | F H H M 4 4 4 4 4 4 4 4 a H 0.H H H H J H H H H H H H H H H H H H H H H H H H ",
"E.U.S J T.T.J J #.E.Q.X.F J F U U U ..Q.T.I U U T. .U U ( w !.!.!.!.!.!.!.c U U U U U U R.U U U Y L.U U U U U T T T U O.U U U U ",
"+.S H H K.J.H H S | | H H H H H H H S W I H H H U.L H H M f !.!.!.!.!.!.*.c D H H H H H ~ H H H H H H H H H H H H H 0.H H H H H ",
"H H H H F H 0.H 0.D 0.H H H 0.H H H H H H H H H H D H 8.c 9 9 9 9 9 9 9 9 s m H H H H H H H H 0.H H H H H H H 0.H H H H H H H H ",
"H H H H H H 0.H H H H H H H H 0.H H H H H H H H H H H V 8 8 7 7 7 8 7 7 7 7 s H H H 0.H H 0.H 0.H H H H H H H H H H H H H H H H ",
"H H H H ^ _ H 0.H @.| H H H K L H 0.H +.K H H H F G D :.f f f f *.*.*.f f *.=.~ 0.H H H H H H H H G H H H 0.H H H H H H H H H H ",
"Y Y Y %.W.E.$.Y Z T.P.I Y +.W.Q.( Y I T.{ Y Y X.W.R.Y v v v v v v v b b b b b T.~ Y Z Z Z Z Z Z / I./ Z Z / U./ Z Z Z ../ Z Y Z ",
"H H H D W W H H H J. .H H H ^ _ H H H %.P H H S L F H H H H 0.H H H H H H H H ' H H H H H H H H H F H 0.H H H H H H H H H 0.H H ",
"H H H 0.H H H 0.H D H H H H H H H 0.H H H H H H H H H H H H 0.H H H H H H H H H H H H H 0.0.0.H H H H 0.H H H H H 0.H H H H H H ",
"H H H H S S H H H H 0.H H H H H 0.H H H H H H H H H H H H H H H H 0.H H H H H H H H H H H H H H H H H 0.H H H H H H H H H H H H ",
"X.S H H J.{ D H H Q ' H H S @.W H H D I U H H H +.A H H D F G H H 0.X.S H H H H H H H H L H H H H H H H H H D H H H H H H H H H ",
"E.J.T T T.T.U U $.E.W.X.Y Y T.L.U U ..Q.T.` Y Y T. .U U | Q.L.Y Y Y T.^ Y R R Y Y Y Y Y R.Y R R R R R Y R Y U.Y Y Y Y O.Y Y R Y ",
"W D H H @.+.D H D _ ! H H H +.^ H H H U F D H H  .F H H 0.G S H H H [ G H H H H H H H H U H H H H H H H 0.H G H H H H 0.H H H H "
};
